<?xml version="1.0" encoding="UTF-8" standalone="no"?>
<svg width="102px" height="64px" viewBox="0 0 102 64" version="1.1" xmlns="http://www.w3.org/2000/svg" xmlns:xlink="http://www.w3.org/1999/xlink" xmlns:sketch="http://www.bohemiancoding.com/sketch/ns">
    <!-- Generator: Sketch 3.3.2 (12043) - http://www.bohemiancoding.com/sketch -->
    <title>Imported Layers</title>
    <desc>Created with Sketch.</desc>
    <defs></defs>
    <g id="Page-1" stroke="none" stroke-width="1" fill="none" fill-rule="evenodd" sketch:type="MSPage">
        <g id="Desktop-HD" sketch:type="MSArtboardGroup" transform="translate(-709.000000, -466.000000)" fill="#FFFFFF">
            <g id="Imported-Layers" sketch:type="MSLayerGroup" transform="translate(709.500000, 466.585938)">
                <path d="M100.6911,50.1010962 C100.961995,53.7739615 99.8468299,56.9346923 97.1559261,59.4778846 C91.7682182,64.5699808 82.7136203,63.1138846 79.5192784,56.4374423 C77.9409364,53.1387692 76.9935842,49.5380769 75.7893935,46.0640769 C75.3940704,44.9243654 75.1065155,43.7477885 74.7328849,42.5999423 C74.6018625,42.1970192 74.4199931,41.7819808 74.1565601,41.4569423 C73.7324296,40.9337308 73.2338505,40.7905962 72.5724914,41.2205192 C68.6425155,43.7756538 63.4613196,43.5070385 59.7805464,40.61925 C59.5342938,40.4260962 59.1689931,40.2879808 58.8585309,40.2869423 C53.3064811,40.2672115 47.7542577,40.2623654 42.2022079,40.293 C41.7846718,40.2954231 41.3138591,40.5115962 40.9607062,40.7599615 C38.6562749,42.3797885 36.1366546,43.2953654 33.312299,42.8266731 C31.9961753,42.60825 30.706256,42.102 29.4682251,41.5767115 C27.8237646,40.8792115 26.9022698,41.2023462 26.2978316,42.9279231 C25.6892285,44.6652692 25.118457,46.4157692 24.5272079,48.1591731 C23.7143488,50.5566346 22.9082577,52.9563462 22.0808213,55.3487885 C20.3350137,60.3958846 15.5222423,63.4143462 10.0022973,62.9380385 C5.21451546,62.5249038 0.892166667,58.4884038 0.196446735,53.4975577 C-0.0784398625,51.5255192 -0.0123213058,49.46175 0.209635739,47.4741346 C0.716718213,42.9343269 1.18024227,38.3680385 2.09010997,33.8991923 C3.56328694,26.6623269 5.3745189,19.4936538 7.06531443,12.3014423 C7.19477491,11.7501923 7.43963918,11.2034423 7.73413574,10.7169231 C9.12193127,8.42417308 10.4687715,6.10096154 11.9763093,3.88765385 C13.8481065,1.13919231 16.7781478,-0.0744230769 20.3549708,0.277442308 C21.7866718,0.418153846 23.2157698,0.640557692 24.6247371,0.928903846 C25.2965086,1.0665 26.0807337,1.25861538 26.0571323,2.26142308 C26.0541821,2.38569231 26.3589175,2.59373077 26.5482491,2.63336538 C27.7257148,2.87965385 28.9083866,3.25523077 30.0940086,3.27305769 C32.0407749,3.30230769 33.9908385,3.00357692 35.9398608,2.997 C45.5982027,2.96428846 55.2567182,2.96844231 64.9150601,2.997 C66.3434639,3.00115385 67.7814124,3.36340385 69.1969742,3.27478846 C70.790067,3.17492308 72.3656323,2.76559615 73.9410241,2.45163462 C74.1235876,2.41528846 74.3998625,2.11759615 74.3871942,1.96096154 C74.3311409,1.27228846 74.7747079,1.03119231 75.2842199,0.874211538 C78.562555,-0.135346154 81.8613677,-0.382153846 85.1390086,0.827826923 C85.9954261,1.14403846 86.9804364,1.44103846 87.2098557,2.56240385 C89.4316821,4.12061538 90.1726959,6.77025 91.752079,8.81273077 C92.8721031,10.2612115 93.4774089,12.1834038 94.0238849,13.9815 C96.3260601,21.5553462 98.2183351,29.2373654 99.4121134,37.0652885 C100.070522,41.3821731 100.445368,45.7419808 100.948112,50.0824038 C100.862557,50.0886346 100.776828,50.0948654 100.6911,50.1010962 L100.6911,50.1010962 Z M33.461543,3.72859615 C32.4553608,3.72859615 31.3603265,3.76511538 30.2687629,3.71751923 C29.3210636,3.67615385 28.3252938,3.70159615 27.4412835,3.41740385 C23.6740876,2.20673077 19.841988,2.07744231 15.9599089,2.52623077 C13.8873265,2.76594231 12.289201,3.64915385 11.3375103,5.65528846 C10.6749364,7.05236538 9.6810756,8.28917308 8.91836942,9.64401923 C8.32850859,10.6918269 7.68762715,11.7633462 7.37768557,12.9073846 C4.54100859,23.382 2.22564433,33.9627115 0.923056701,44.7523269 C0.550640893,47.8374231 1.59101031,50.2508077 3.92633162,52.119 C4.96878351,52.9528846 6.19119588,53.6207885 7.4252354,54.1459038 C9.77912543,55.1476731 12.3049931,55.5239423 14.8417938,55.7042885 C16.8071289,55.8439615 18.7592749,55.6774615 20.6597062,55.0666731 C21.3743419,54.837 21.833701,54.4946538 22.0537491,53.7225577 C22.4318918,52.3967885 22.9365447,51.1070192 23.3842766,49.8009808 C24.1867234,47.4602885 24.9716426,45.1137115 25.7912698,42.77925 C26.5251684,40.6893462 27.7116581,40.2670385 29.7070155,41.0825769 C31.1307337,41.6642885 32.6408746,42.1800577 34.1563952,42.3616154 C36.6196151,42.6567115 38.7803557,41.6471538 40.7680773,40.2429808 C41.0972818,40.0103654 41.546055,39.8253462 41.9403368,39.8234423 C47.6667938,39.7967885 53.3934244,39.8014615 59.1198814,39.816 C59.4136838,39.8168654 59.7913058,39.8862692 59.9879261,40.0726731 C63.149122,43.0693269 69.2365412,43.1029038 72.4930103,40.6711731 C72.7892423,40.4499808 73.3738969,40.4305962 73.7579399,40.5436154 C74.7729725,40.842 75.0537595,41.7769615 75.3321168,42.6643269 C76.3049794,45.7653462 77.3290361,48.8523462 78.2095756,51.9793269 C78.6151375,53.4193269 79.5048746,54.2554615 80.8097182,54.7315962 C81.6137268,55.0251346 82.4605997,55.2245192 83.3038282,55.3846154 C85.3895997,55.7806154 87.4342423,55.2947885 89.4906856,55.0381154 C94.2276203,54.4467115 97.6102526,51.9656538 99.7586718,47.7576346 C99.9226667,47.4362308 100.072778,47.0445577 100.045533,46.6997885 C99.9060069,44.9219423 99.8030979,43.1326731 99.5089485,41.3771538 C98.7111873,36.6158077 97.9771151,31.83525 96.9292835,27.1261731 C95.8368522,22.2161538 94.4962595,17.3551154 93.095622,12.52125 C92.1005464,9.08653846 89.5043952,6.52378846 87.6796271,3.53855769 C87.4653058,3.18807692 86.8761392,2.98038462 86.4218127,2.87757692 C85.2412234,2.61051923 84.0453625,2.38482692 82.8439485,2.23944231 C79.9187663,1.8855 77.0347131,2.14926923 74.1716581,2.84901923 C72.6417337,3.22286538 71.0795309,3.48334615 69.5195842,3.70990385 C68.7735378,3.81825 67.9985103,3.72859615 67.198146,3.72859615 C67.2654794,4.30061538 67.3454811,4.66805769 67.3463488,5.03584615 C67.3593643,9.79511538 67.373421,14.5547308 67.3579759,19.314 C67.3536375,20.6691923 66.5213419,21.4973654 65.1606186,21.6155769 C64.8730636,21.6406731 64.582732,21.6401538 64.2937887,21.6403269 C55.0387526,21.6413654 45.7837165,21.6413654 36.5286804,21.6405 C36.2685447,21.6405 36.0073677,21.64275 35.7482732,21.6235385 C34.2895,21.5157115 33.4863591,20.6792308 33.4625842,19.2269423 C33.448354,18.3619038 33.4613694,17.4963462 33.4613694,16.6309615 C33.461543,12.3975 33.461543,8.16403846 33.461543,3.72859615 L33.461543,3.72859615 Z M50.4500206,3.38244231 C45.6235395,3.38244231 40.7970584,3.37828846 35.9705773,3.38469231 C34.3163986,3.38676923 33.9202079,3.77930769 33.9219433,5.42630769 C33.9262818,9.92267308 33.9394708,14.4192115 33.9585601,18.9155769 C33.9656753,20.5826538 34.5369674,21.1371923 36.2053763,21.1373654 C45.6561649,21.1380577 55.1067801,21.1378846 64.5573952,21.1373654 C66.326457,21.1371923 66.8628677,20.6011731 66.8694622,18.8056731 C66.8854278,14.3956731 66.8963608,9.98567308 66.9046907,5.5755 C66.9052113,5.26032692 66.8637354,4.94498077 66.8477698,4.62946154 C66.8111529,3.90323077 66.3917079,3.53682692 65.7051856,3.44959615 C65.3341581,3.40251923 64.9572302,3.38538462 64.582732,3.38503846 C59.8718282,3.38088462 55.1609244,3.38226923 50.4500206,3.38244231 L50.4500206,3.38244231 Z M0.698496564,48.7948846 C-0.290678694,56.3678654 3.85032131,61.1139808 9.32063402,62.2414038 C14.8421409,63.3793846 20.0313196,59.7375 21.3245361,55.5057692 C17.2054021,56.6044615 15.3724777,56.4878077 11.5143471,55.8309808 C6.98583333,55.0599231 2.9232732,53.4677885 0.698496564,48.7948846 L0.698496564,48.7948846 Z M100.041888,48.7344808 C99.1679433,49.7999423 98.3292268,50.9661346 97.3450842,51.9938654 C95.124299,54.3129231 92.2409399,55.2345577 89.1462096,55.6741731 C86.9120619,55.9915962 84.6702784,56.2922308 82.4376924,55.8192115 C81.3527234,55.5893654 80.3215515,55.1073462 79.2784055,54.7438846 C81.5406667,60.6549808 87.446043,63.0114231 92.4542199,61.5092885 C97.8217973,59.8993269 101.055706,54.7210385 100.041888,48.7344808 L100.041888,48.7344808 Z M86.6932285,2.24255769 C86.3175155,1.99436538 85.9732131,1.64180769 85.5600155,1.51719231 C84.2990773,1.13728846 83.0279003,0.689192308 81.7306924,0.554365385 C79.6268729,0.335596154 77.519756,0.543980769 75.5072182,1.27540385 C75.2174072,1.38080769 75.0016976,1.68923077 74.7516271,1.90367308 C74.8043832,1.99782692 74.8571392,2.09198077 74.9098952,2.18596154 C78.8388299,1.26190385 82.7412131,1.52480769 86.6932285,2.24255769 L86.6932285,2.24255769 Z M13.7524863,2.56032692 C17.7072784,1.48915385 21.618512,1.72609615 25.566189,2.30486538 C24.9372818,0.0837692308 15.9696271,0.304788462 13.7524863,2.56032692 L13.7524863,2.56032692 Z" id="Fill-1" sketch:type="MSShapeGroup"></path>
                <path d="M72.181854,10.4410385 C73.2088608,9.52182692 74.140421,8.45913462 75.278146,7.70625 C82.5548316,2.89125 92.632445,7.42188462 93.7028368,16.0141154 C94.3197698,20.9658462 92.5559141,25.0354038 88.3300533,27.7572115 C84.1179021,30.4703654 79.7304759,30.3902308 75.3999708,27.8579423 C75.2538505,27.7726154 75.1084244,27.6860769 74.9142337,27.5715 C77.6608436,30.9754038 76.4471082,37.1076923 72.1520052,39.9061731 C68.9040395,42.0223846 64.7840378,41.9789423 61.5612354,39.7400192 C58.4724055,37.5942115 56.9527199,33.6250385 57.8316976,29.9994231 C58.7504158,26.2097308 61.8307423,23.3224615 65.641323,22.8773077 C66.8744948,22.7333077 68.1887096,22.8207115 69.3993213,23.0946923 C70.2966942,23.2977115 71.0864725,23.9734038 71.7894811,24.3638654 C70.7756632,22.7885192 70.0382938,20.8978269 69.8583333,18.7947692 C69.6205842,16.0186154 70.2765636,13.4865 71.7700447,11.1511731 C71.9244948,10.9099038 72.0643677,10.6592885 72.2108351,10.413 L72.181854,10.4410385 L72.181854,10.4410385 Z M70.2900997,17.6586923 C70.1955206,23.3530962 74.6870704,29.1362885 81.8388076,29.2295769 C87.9713471,29.3095385 93.1796151,24.0725769 93.3632199,18.1377692 C93.5490808,12.1240385 88.8551838,6.26140385 81.8398488,6.18075 C75.5178041,6.10823077 70.3346993,11.31075 70.2900997,17.6586923 L70.2900997,17.6586923 Z M75.8466615,31.5633462 C75.9198952,30.2012308 75.3376701,28.6044231 73.8721289,27.3222692 C72.8964897,26.4686538 72.0591615,25.4580577 71.0889021,24.5976923 C70.5865052,24.1521923 69.9709605,23.7385385 69.3354588,23.5521346 C63.1968454,21.7526538 57.0481667,27.3198462 58.2186907,33.5923269 C59.0079485,37.8219808 62.8143643,41.4025962 68.1656289,40.8601731 C72.3295361,40.4380385 75.8273986,36.4991538 75.8466615,31.5633462 L75.8466615,31.5633462 Z" id="Fill-2" sketch:type="MSShapeGroup"></path>
                <path d="M28.6256907,10.5936923 C29.3274845,12.0944423 30.2533179,13.5339231 30.6859519,15.1082308 C31.7086203,18.83025 30.8541117,22.2708462 28.5590515,25.3623462 C28.3534072,25.6394423 28.1463746,25.9155 27.9400361,26.1919038 C27.7081873,26.4229615 27.4763385,26.6540192 27.2443162,26.8850769 C25.4821959,28.2769615 23.5663196,29.3180192 21.3290481,29.7870577 C14.9374141,31.1270192 8.2372268,26.54775 7.24423368,20.10825 C6.18581615,13.2438462 10.4170567,7.26213462 17.290957,6.17382692 C21.3719124,5.52773077 24.9258282,6.82667308 27.8270619,9.80255769 C28.0472835,10.0285962 28.2789588,10.2433846 28.5052543,10.4633654 C28.5455155,10.5068077 28.5856031,10.55025 28.6256907,10.5936923 L28.6256907,10.5936923 Z M19.0503007,29.4599423 C25.4311753,29.4642692 30.5719364,24.3716538 30.6024794,18.0155769 C30.6330223,11.6930769 25.4530412,6.49003846 19.1212784,6.48346154 C12.7176701,6.47688462 7.50471649,11.6413269 7.50853436,17.9882308 C7.51217869,24.3036346 12.6956306,29.4554423 19.0503007,29.4599423 L19.0503007,29.4599423 Z" id="Fill-3" sketch:type="MSShapeGroup"></path>
                <path d="M27.2443162,26.8850769 C27.4763385,26.6540192 27.7081873,26.4229615 27.9400361,26.1919038 C29.2601512,24.8870769 30.3786134,23.3449615 32.3783093,22.9171154 C37.4329948,21.8357308 42.6069021,25.2025962 43.5749055,30.2483077 C44.5875086,35.5264615 41.0832251,40.5334038 35.826366,41.3191731 C29.0820997,42.3273462 23.5415034,36.1829423 25.2822784,29.6553462 C25.6000292,28.4640577 26.4187887,27.6869423 27.2443162,26.8850769 L27.2443162,26.8850769 Z M43.2224467,32.0865577 C43.2339003,28.1018077 40.5355344,24.4903846 36.6718505,23.5370769 C33.929579,22.8606923 31.3270069,23.0251154 29.3457062,25.4594423 C28.8382766,26.0828654 28.2612577,26.6723654 27.6304416,27.1692692 C25.513433,28.8370385 25.225878,31.1126538 25.6094003,33.5009423 C26.2964433,37.7807885 30.2243368,41.36625 35.4716512,40.8700385 C39.6414588,40.4757692 43.2094313,36.5200962 43.2224467,32.0865577 L43.2224467,32.0865577 Z" id="Fill-4" sketch:type="MSShapeGroup"></path>
                <path d="M50.6284192,29.2669615 C52.2050258,29.2782115 53.4871357,30.5563846 53.4945979,32.1244615 C53.5022337,33.7157308 52.1297096,35.0762885 50.5685481,35.0252308 C49.0066924,34.9741731 47.7186821,33.6478846 47.7320447,32.1045577 C47.7454072,30.5569038 49.0735052,29.2558846 50.6284192,29.2669615 L50.6284192,29.2669615 Z M50.5963144,34.4674038 C51.9299656,34.4745 52.9448247,33.4652885 52.9502045,32.1265385 C52.9554107,30.7839808 51.949055,29.7898269 50.5959674,29.8014231 C49.2965034,29.8125 48.295354,30.8012885 48.2771323,32.0919231 C48.2582165,33.4164808 49.2774141,34.4603077 50.5963144,34.4674038 L50.5963144,34.4674038 Z" id="Fill-5" sketch:type="MSShapeGroup"></path>
                <path d="M72.2108351,10.413 C70.3581271,11.4829615 69.0784467,10.7342308 69.0758436,8.57786538 C69.0751495,8.06088462 69.0588368,7.54269231 69.0853883,7.02692308 C69.1424828,5.91923077 69.8545155,5.18417308 70.8468144,5.17776923 C71.8611529,5.17119231 72.6009519,5.88028846 72.6006048,7.00096154 C72.6000842,8.15780769 72.8754914,9.36363462 72.181854,10.4413846 C72.181854,10.4410385 72.2108351,10.413 72.2108351,10.413 L72.2108351,10.413 Z M72.1625911,8.06451923 C72.1625911,7.66176923 72.1900103,7.25659615 72.1565172,6.85661538 C72.096299,6.13315385 71.5316014,5.61634615 70.8525412,5.62119231 C70.1510945,5.62603846 69.6289141,6.11861538 69.5950739,6.88448077 C69.5608866,7.65986538 69.5612337,8.43905769 69.5975034,9.21426923 C69.6334261,9.98273077 70.1542182,10.4509038 70.8757955,10.4398269 C71.5751598,10.4289231 72.1009845,9.92873077 72.1568643,9.18623077 C72.1849777,8.81428846 72.1617234,8.43853846 72.1625911,8.06451923 L72.1625911,8.06451923 Z" id="Fill-6" sketch:type="MSShapeGroup"></path>
                <path d="M28.6256907,10.5936923 C28.5856031,10.55025 28.5455155,10.5068077 28.5052543,10.4633654 C27.9063694,9.23071154 28.0377388,7.93592308 28.2621254,6.66363462 C28.4136254,5.80551923 29.1792818,5.33405769 30.0615567,5.38805769 C30.9092973,5.43980769 31.5732595,6.05284615 31.6378162,6.92844231 C31.6905722,7.64376923 31.6430223,8.36567308 31.6707887,9.08359615 C31.7021993,9.9 31.4514347,10.5568269 30.6960172,10.9500577 C29.9206426,11.3536731 29.2492182,11.0982115 28.6256907,10.5936923 L28.6256907,10.5936923 Z M31.2053557,8.27013462 L31.2103883,8.27013462 C31.2103883,7.86686538 31.2336426,7.46203846 31.2053557,7.06084615 C31.1541615,6.33669231 30.5823488,5.77038462 29.9154364,5.81763462 C29.197677,5.86851923 28.7049983,6.26607692 28.6571014,6.99957692 C28.6031306,7.83069231 28.607122,8.67115385 28.6645636,9.50209615 C28.7157577,10.2418269 29.2152045,10.6594615 29.935567,10.6521923 C30.655756,10.6449231 31.1178918,10.2141346 31.1975464,9.47890385 C31.2409313,9.08030769 31.2053557,8.67323077 31.2053557,8.27013462 L31.2053557,8.27013462 Z" id="Fill-7" sketch:type="MSShapeGroup"></path>
                <path d="M51.499067,27.5749615 C51.0286014,27.9012115 50.757012,28.2350769 50.526378,28.2089423 C50.2922732,28.1824615 49.9868436,27.8254038 49.9297491,27.5656154 C49.896256,27.4138269 50.2832491,27.0117692 50.4892405,27.0058846 C50.7467732,26.9982692 51.0129828,27.2821154 51.499067,27.5749615" id="Fill-8" sketch:type="MSShapeGroup"></path>
                <path d="M50.5204777,24.0145962 C50.8432612,24.5208462 51.1695155,24.8112692 51.1216186,25.0139423 C51.0631357,25.2623077 50.6917612,25.4374615 50.4555739,25.6442885 C50.2667629,25.4296731 49.9396409,25.2228462 49.927146,24.9983654 C49.913957,24.7631538 50.2025533,24.5111538 50.5204777,24.0145962" id="Fill-9" sketch:type="MSShapeGroup"></path>
                <path d="M54.1920533,26.2760192 C53.6957302,26.6005385 53.4413213,26.8959808 53.1968041,26.8881923 C52.979012,26.8812692 52.5767474,26.5036154 52.6039931,26.3514808 C52.6505017,26.0913462 52.941354,25.7360192 53.1815326,25.6899808 C53.3998454,25.6482692 53.6874003,25.9646538 54.1920533,26.2760192" id="Fill-10" sketch:type="MSShapeGroup"></path>
                <path d="M49.6930412,27.6019615 C49.1887354,27.92475 48.8980567,28.2534231 48.6872062,28.2085962 C48.4414742,28.1563269 48.1606873,27.8001346 48.1025515,27.5313462 C48.0723557,27.3920192 48.4832973,27.0135 48.7073368,27.0029423 C48.947689,26.9915192 49.2026186,27.2850577 49.6930412,27.6019615" id="Fill-11" sketch:type="MSShapeGroup"></path>
                <path d="M49.6902646,27.2739808 C49.327567,26.7876346 48.9806615,26.5235192 49.0051306,26.3000769 C49.0311615,26.0622692 49.380323,25.7637115 49.6449708,25.6875577 C49.7799845,25.6486154 50.1836375,26.0248846 50.2042887,26.2388077 C50.2282371,26.4852692 49.9635893,26.7595962 49.6902646,27.2739808" id="Fill-12" sketch:type="MSShapeGroup"></path>
                <path d="M53.3120344,27.5204423 C52.8313299,27.8837308 52.5696323,28.2323077 52.344378,28.2103269 C52.1045464,28.1867885 51.7980756,27.8425385 51.7201564,27.5796346 C51.6795481,27.4427308 52.0533522,27.03375 52.2680206,27.0110769 C52.5153144,26.9851154 52.7934983,27.2495769 53.3120344,27.5204423" id="Fill-13" sketch:type="MSShapeGroup"></path>
                <path d="M47.7992045,27.2743269 C47.4937749,26.7606346 47.1803625,26.4665769 47.2270447,26.2493654 C47.2778918,26.01225 47.643366,25.7380962 47.9085344,25.6924038 C48.0539605,25.6673077 48.4215172,26.0790577 48.4232526,26.2960962 C48.4253351,26.5406538 48.128756,26.7878077 47.7992045,27.2743269" id="Fill-14" sketch:type="MSShapeGroup"></path>
                <path d="M54.8136718,25.1447885 C54.5637749,25.31025 54.2798643,25.6408269 54.0728316,25.5984231 C53.8251907,25.5477115 53.5504777,25.2039808 53.4746409,24.9348462 C53.4397595,24.8116154 53.8423711,24.4254808 54.0653694,24.4088654 C54.3031186,24.3910385 54.5630808,24.6688269 54.8131512,24.8176731 C54.8133247,24.9267115 54.8134983,25.03575 54.8136718,25.1447885" id="Fill-15" sketch:type="MSShapeGroup"></path>
                <path d="M52.2640292,25.9395577 C51.9815069,25.4679231 51.7022818,25.2048462 51.7104381,24.9507692 C51.7168591,24.7517308 52.1151323,24.3815192 52.2746151,24.4130192 C52.5291976,24.4633846 52.890854,24.7707692 52.9092491,24.9940385 C52.9283385,25.2257885 52.5932337,25.4864423 52.2640292,25.9395577" id="Fill-16" sketch:type="MSShapeGroup"></path>
                <path d="M48.7144519,24.0130385 C49.0240464,24.5149615 49.3083041,24.7719808 49.2918179,25.0082308 C49.2761993,25.2289038 48.8919828,25.6268077 48.7578368,25.5935769 C48.4911065,25.5274615 48.1469777,25.2474231 48.0957835,25.0016538 C48.0530928,24.7963846 48.3822973,24.5140962 48.7144519,24.0130385" id="Fill-17" sketch:type="MSShapeGroup"></path>
                <path d="M47.9069725,24.9763846 C47.412732,25.3021154 47.1347216,25.6275 46.9070378,25.5956538 C46.6758832,25.5634615 46.3904107,25.2010385 46.3329691,24.9386538 C46.302079,24.7977692 46.6958402,24.4159615 46.9061701,24.4095577 C47.1565876,24.4017692 47.4160292,24.6799038 47.9069725,24.9763846" id="Fill-18" sketch:type="MSShapeGroup"></path>
                <path d="M51.3633591,27.27 C51.0853488,26.7625385 50.8180979,26.4932308 50.8396168,26.2491923 C50.8585326,26.0338846 51.2533351,25.6517308 51.387134,25.6884231 C51.6535172,25.7612885 52.0080584,26.0522308 52.0377337,26.2891731 C52.0655,26.5112308 51.7208505,26.7796731 51.3633591,27.27" id="Fill-19" sketch:type="MSShapeGroup"></path>
                <path d="M81.7737302,13.8163846 C79.8521271,13.8006346 78.3900567,12.3237692 78.3996014,10.4085 C78.4089725,8.52473077 79.9487887,6.98625 81.8153797,6.99576923 C83.7305619,7.00546154 85.2493797,8.56003846 85.2332405,10.4938269 C85.217622,12.3831346 83.7085223,13.8324808 81.7737302,13.8163846 L81.7737302,13.8163846 Z M84.4483213,11.9080385 L79.1328058,11.9080385 C80.0355584,10.3335577 80.8128419,8.97819231 81.6038351,7.59894231 C80.0978591,7.37532692 78.5386065,9.28453846 78.8777027,10.8785769 C79.1479038,12.1489615 79.8915206,13.0233462 81.1600945,13.3052885 C82.5473694,13.6137115 83.6306031,13.0389231 84.4207285,11.8891731 C84.9829966,10.7200385 84.9347526,9.59642308 84.1081838,8.56938462 C83.5780206,7.91065385 82.8920189,7.52988462 81.8523436,7.50426923 C82.7837302,9.08428846 83.6160258,10.4960769 84.4483213,11.9080385 L84.4483213,11.9080385 Z M79.9680515,11.3908846 L83.5773265,11.3908846 C82.9614347,10.3307885 82.3996873,9.36363462 81.7629708,8.26788462 C81.1272955,9.37401923 80.578043,10.32975 79.9680515,11.3908846 L79.9680515,11.3908846 Z" id="Fill-20" sketch:type="MSShapeGroup"></path>
                <path d="M78.3893625,25.0335 C78.3801649,23.0867308 79.8904794,21.5728269 81.8349897,21.5794038 C83.7392388,21.5859808 85.2393144,23.0818846 85.2467766,24.98175 C85.2542388,26.9132885 83.7034897,28.4779038 81.8002818,28.4593846 C79.9163368,28.4410385 78.3982131,26.9160577 78.3893625,25.0335 L78.3893625,25.0335 Z M81.7874399,27.9019038 C83.4393625,27.9115962 84.8247285,26.5674808 84.8011271,24.9777692 C84.7778729,23.4081346 83.4261735,22.0818462 81.8429725,22.0752692 C80.187232,22.0685192 78.8336237,23.391 78.8398711,25.0094423 C78.8461186,26.5905 80.1730017,27.8925577 81.7874399,27.9019038 L81.7874399,27.9019038 Z" id="Fill-21" sketch:type="MSShapeGroup"></path>
                <path d="M92.7152234,17.6856923 C92.7181735,19.6194808 91.1932818,21.1294038 89.2558866,21.1112308 C87.358232,21.0934038 85.8618007,19.5897115 85.8624948,17.7014423 C85.863189,15.7858269 87.435457,14.2203462 89.325823,14.2530577 C91.2127182,14.2857692 92.7124467,15.8046923 92.7152234,17.6856923 L92.7152234,17.6856923 Z M89.2723729,20.6186538 C90.919957,20.6224615 92.2891838,19.2875192 92.2751271,17.6910577 C92.2608969,16.0663846 90.9213454,14.7664038 89.2675137,14.7726346 C87.6690412,14.7785192 86.3357371,16.07175 86.3003351,17.6507308 C86.264933,19.2200192 87.6619261,20.6150192 89.2723729,20.6186538 L89.2723729,20.6186538 Z" id="Fill-22" sketch:type="MSShapeGroup"></path>
                <path d="M77.7913454,17.7016154 C77.78961,19.6014808 76.3108797,21.0921923 74.4088866,21.1114038 C72.473921,21.1309615 70.9429553,19.6174038 70.9459055,17.6879423 C70.9486821,15.8185385 72.4753093,14.2726154 74.3375619,14.2528846 C76.2411168,14.2329808 77.7929072,15.7825385 77.7913454,17.7016154 L77.7913454,17.7016154 Z M76.5217302,15.7906731 L76.5463729,15.8263269 C75.9100034,14.4919038 73.1141082,14.3953269 72.3498402,15.6459808 L72.3789948,15.6189808 C71.1820928,16.3787885 71.0300722,18.7932115 72.3748299,19.8005192 L72.3534845,19.7799231 C73.6171993,20.9435192 75.005689,20.9440385 76.4580412,19.7816538 C76.4795601,19.7584615 76.5026409,19.7366538 76.5267629,19.7162308 C77.5527285,18.6807115 77.6769828,16.7206154 76.5217302,15.7906731 L76.5217302,15.7906731 Z" id="Fill-23" sketch:type="MSShapeGroup"></path>
                <path d="M66.9551907,38.1940962 C63.5413213,38.1887308 60.8561443,35.5062115 60.8564914,32.1016154 C60.8568385,28.6521923 63.5571134,25.9613654 67.0115911,25.9679423 C70.4405584,25.9746923 73.1340653,28.7055 73.1158436,32.1571731 C73.0979691,35.5371923 70.3812079,38.1994615 66.9551907,38.1940962 L66.9551907,38.1940962 Z M67.0091615,37.7283462 C70.0658866,37.6911346 72.6618643,35.0892692 72.6556168,32.0694231 C72.6491959,29.0085577 69.9452766,26.3483654 66.9121529,26.4191538 C63.8415447,26.4906346 61.2804485,29.1002885 61.3161976,32.121 C61.3521203,35.1543462 64.0027629,37.7650385 67.0091615,37.7283462 L67.0091615,37.7283462 Z" id="Fill-24" sketch:type="MSShapeGroup"></path>
                <path d="M19.0589777,26.2083462 C18.7417474,26.2083462 18.4243436,26.2152692 18.1072869,26.2069615 C16.7890808,26.1730385 16.1492405,25.5355962 16.1254656,24.2375192 C16.1223419,24.0649615 16.1546203,23.8863462 16.1209536,23.7205385 C15.7081031,21.6794423 17.1286976,20.6151923 18.4345825,19.5433269 C18.6669519,19.3525962 19.3661426,19.4299615 19.6417234,19.6466538 C20.3606976,20.2120962 20.9961993,20.8954038 21.6046289,21.5847692 C22.1576993,22.2113077 22.2288505,24.8526346 21.6568643,25.4584038 C21.3153385,25.8199615 20.7608797,26.0292115 20.2635155,26.1808269 C19.8942234,26.2933269 19.4628041,26.2029808 19.0589777,26.2029808 L19.0589777,26.2083462 L19.0589777,26.2083462 Z M18.9867852,25.6451538 C19.4782491,25.6451538 19.971622,25.6730192 20.4606564,25.6380577 C21.0611031,25.5951346 21.4116529,25.2280385 21.4666649,24.6411346 C21.609488,23.1139038 21.5942165,21.6356538 20.0818196,20.6697115 C19.8183866,20.5014808 19.6373849,20.2020577 19.3703076,20.0436923 C19.1861821,19.9344808 18.8109897,19.8503654 18.7065189,19.9493654 C17.7138729,20.8910769 16.4815687,21.5903077 16.627689,23.3620962 C16.8163265,25.6455 16.6764536,25.6569231 18.9867852,25.6451538 L18.9867852,25.6451538 Z" id="Fill-25" sketch:type="MSShapeGroup"></path>
                <path d="M27.2783299,18.0424038 C27.2788505,18.3594808 27.2842302,18.6765577 27.2779828,18.9934615 C27.2521254,20.2849615 26.6534141,20.8651154 25.3416289,20.8751538 C25.2260515,20.8760192 25.1056151,20.8538654 24.9955911,20.8784423 C22.9535515,21.3348462 21.7762595,20.0604808 20.6440876,18.7106538 C20.2742749,18.2694808 20.3027354,17.7988846 20.6984055,17.3874808 C21.2979845,16.7642308 21.8684089,16.09425 22.5528488,15.5779615 C22.9495601,15.2785385 23.5382062,15.2093077 24.0537921,15.0976731 C24.3573127,15.0319038 24.6870378,15.0852115 25.0049622,15.0855577 C26.7623969,15.0874615 27.2736443,15.597 27.2778093,17.3504423 C27.2783299,17.5811538 27.2778093,17.8116923 27.2783299,18.0424038 L27.2783299,18.0424038 Z M26.7768007,17.9712692 C26.7768007,17.5683462 26.8399691,17.1520962 26.7578849,16.7664808 C26.6853454,16.4263846 26.5237801,16.0371346 26.2721478,15.8169808 C25.737646,15.3495 23.3375945,15.4651154 22.8030928,15.9578654 C22.2106289,16.5040962 21.6530464,17.0903077 21.1121237,17.6877692 C20.986134,17.8269231 20.8776718,18.1990385 20.9486495,18.2656731 C21.9314038,19.1907692 22.5221323,20.5795385 24.3073333,20.4699808 C26.7157148,20.322 26.7792302,20.3772115 26.7768007,17.9712692 L26.7768007,17.9712692 Z" id="Fill-26" sketch:type="MSShapeGroup"></path>
                <path d="M10.7266512,17.9974038 C10.7292543,15.3424038 10.9952904,15.2136346 13.6429828,15.0435 C15.6294897,14.9157692 16.4065997,16.3436538 17.4445395,17.4705577 C17.6114845,17.6517692 17.4736942,18.3290192 17.2562491,18.6028269 C16.7212268,19.2764423 16.0885017,19.8842885 15.4314811,20.4445385 C15.1515619,20.6833846 14.7217045,20.8123269 14.3440825,20.8571538 C13.7738316,20.9248269 13.1896976,20.8791346 12.6116375,20.8742885 C11.3512199,20.8640769 10.7558058,20.2828846 10.7275189,19.0353462 C10.7197096,18.6895385 10.7263041,18.3433846 10.7266512,17.9974038 L10.7266512,17.9974038 Z M11.2464021,17.9560385 C11.2464021,18.4164231 11.1867045,18.8875385 11.2668797,19.3333846 C11.3225859,19.6428462 11.5067113,19.99575 11.7463694,20.1921923 C12.3157526,20.6591538 14.6552388,20.5270962 15.1999794,20.0206731 C15.7907079,19.4716731 16.3543643,18.8915192 16.8970223,18.2952692 C17.0205825,18.1595769 17.1195,17.7926538 17.0440103,17.7171923 C16.0826014,16.7564423 15.4460584,15.4258269 13.6714433,15.5326154 C11.2726065,15.6769615 11.2129089,15.6184615 11.2464021,17.9560385 L11.2464021,17.9560385 Z" id="Fill-27" sketch:type="MSShapeGroup"></path>
                <path d="M19.0777199,9.85223077 C21.7748711,9.84063462 21.8310979,10.0228846 21.9898866,12.7445192 C22.1070258,14.7501346 20.6774072,15.5421346 19.4853643,16.5589615 C19.3217165,16.6984615 18.7360206,16.5632885 18.5060808,16.3678846 C17.8058488,15.7719808 17.1566375,15.1090962 16.539878,14.4254423 C15.9488024,13.7703462 15.9165241,11.1267692 16.5226976,10.4811923 C16.809732,10.1753654 17.2769003,9.97338462 17.6977337,9.87507692 C18.1354003,9.77278846 18.6159313,9.85223077 19.0777199,9.85223077 L19.0777199,9.85223077 Z M19.0975034,10.2951346 C18.7797526,10.2951346 18.4620017,10.2928846 18.1442509,10.2956538 C16.9846598,10.3058654 16.6682973,10.6225962 16.658579,11.7908654 C16.6542405,12.3094038 16.6169296,12.8331346 16.6768007,13.34475 C16.7144588,13.6652885 16.833854,14.0303077 17.0414072,14.2658654 C17.55439,14.8484423 18.122732,15.3865385 18.7058247,15.9005769 C18.8647869,16.0405962 19.2783316,16.1575962 19.3668368,16.07175 C20.3412612,15.1274423 21.6528729,14.4912115 21.5322629,12.7116346 C21.3691357,10.3034423 21.49339,10.2949615 19.0975034,10.2951346 L19.0975034,10.2951346 Z" id="Fill-28" sketch:type="MSShapeGroup"></path>
                <path d="M27.5500928,15.8858654 C28.2895447,16.7159423 28.8780172,17.3764038 29.4258814,17.9913462 C28.8840911,18.5401731 28.2357474,19.1966538 27.5500928,19.8913846 L27.5500928,15.8858654 L27.5500928,15.8858654 Z M27.9931392,18.8430577 C28.3608694,18.5178462 28.6465155,18.2655 28.9880412,17.9636538 C28.6741082,17.6706346 28.3862062,17.4020192 27.9931392,17.0352692 L27.9931392,18.8430577 L27.9931392,18.8430577 Z" id="Fill-29" sketch:type="MSShapeGroup"></path>
                <path d="M10.4535,16.0383462 L10.4535,20.0064808 C9.74771478,19.242 9.13164948,18.5746154 8.56660481,17.9626154 C9.1040567,17.4144808 9.73764948,16.7683846 10.4535,16.0383462 L10.4535,16.0383462 Z M9.96220962,18.9829038 L9.96220962,17.0825192 C9.5792079,17.4165577 9.28957045,17.6690769 8.93242612,17.9806154 C9.31213058,18.3503077 9.58892612,18.6196154 9.96220962,18.9829038 L9.96220962,18.9829038 Z" id="Fill-30" sketch:type="MSShapeGroup"></path>
                <path d="M17.3763385,26.4319615 L21.0335103,26.4319615 C20.2812165,27.1114615 19.6125687,27.7153269 19.1367234,28.14525 C18.616799,27.6393462 17.9507543,26.9911731 17.3763385,26.4319615 L17.3763385,26.4319615 Z M19.1023625,27.7528846 C19.3380292,27.5245962 19.6077096,27.26325 19.9324021,26.9485962 L18.3278557,26.9485962 C18.5767113,27.207 18.8214021,27.4610769 19.1023625,27.7528846 L19.1023625,27.7528846 Z" id="Fill-31" sketch:type="MSShapeGroup"></path>
                <path d="M21.0933814,9.56734615 L17.1089141,9.56734615 C17.8822062,8.91848077 18.5852148,8.32846154 19.2212371,7.79469231 C19.649012,8.19986538 20.3036031,8.81948077 21.0933814,9.56734615 L21.0933814,9.56734615 Z M17.9783471,9.08705769 L20.0951821,9.08705769 C19.6937852,8.66526923 19.4098746,8.36705769 19.1072216,8.04894231 C18.7247405,8.40063462 18.4378797,8.66440385 17.9783471,9.08705769 L17.9783471,9.08705769 Z" id="Fill-32" sketch:type="MSShapeGroup"></path>
                <path d="M34.335488,38.1940962 C30.8856959,38.1895962 28.2175258,35.4906346 28.2310619,32.0195769 C28.2442509,28.6435385 30.9698625,25.9622308 34.3825172,25.9679423 C37.8132199,25.9738269 40.5051649,28.6996154 40.4904141,32.1528462 C40.4761838,35.5316538 37.7589021,38.1985962 34.335488,38.1940962 L34.335488,38.1940962 Z M34.3804347,37.7286923 C37.4102612,37.7127692 40.0263694,35.1053654 40.0303608,32.0972885 C40.0343522,29.0372885 37.38961,26.3985577 34.3389588,26.4191538 C31.2952491,26.4395769 28.7112457,29.0163462 28.6911151,32.05125 C28.6709845,35.0946346 31.3263127,37.7444423 34.3804347,37.7286923 L34.3804347,37.7286923 Z" id="Fill-33" sketch:type="MSShapeGroup"></path>
                <path d="M76.5267629,19.7162308 C76.5026409,19.7366538 76.4795601,19.7584615 76.4580412,19.7816538 C75.0898557,19.7811346 73.7216701,19.7806154 72.3534845,19.7799231 L72.3748299,19.8005192 C72.3762182,18.4067308 72.3776065,17.0127692 72.3789948,15.6189808 L72.3498402,15.6459808 C72.8977045,15.6414808 73.446957,15.6113654 73.9932595,15.6385385 C74.8453385,15.6807692 75.6955086,15.7617692 76.5463729,15.8263269 L76.5217302,15.7906731 C76.5234656,17.0991346 76.5250275,18.4075962 76.5267629,19.7162308 L76.5267629,19.7162308 Z M75.9778574,17.7891923 C75.9355137,15.9128654 76.3153918,16.0966731 74.3825086,16.0940769 C72.4093643,16.0914808 72.7857715,15.9415962 72.7639055,17.6687308 C72.7429072,19.3262885 72.7600876,19.3326923 74.3908385,19.3247308 C76.2832869,19.3155577 75.938811,19.4652692 75.9778574,17.7891923 L75.9778574,17.7891923 Z" id="Fill-34" sketch:type="MSShapeGroup"></path>
                <path d="M82.0067938,24.5961346 C82.5888454,24.0467885 83.1335859,23.5324038 83.6783265,23.0180192 C83.7690876,23.1021346 83.8596753,23.1860769 83.9504364,23.2700192 C83.4607079,23.8129615 82.9711529,24.3557308 82.4062818,24.9820962 C82.9234296,25.5471923 83.445957,26.1181731 83.968311,26.6889808 C83.8721701,26.7751731 83.7762027,26.8615385 83.6800619,26.9479038 C83.1321976,26.4323077 82.5845069,25.9165385 82.0041907,25.3703077 C81.4294278,25.9030385 80.8756632,26.4163846 80.3218986,26.9297308 C80.2326993,26.8508077 80.1435,26.7717115 80.0543007,26.6926154 C80.545244,26.1411923 81.0361873,25.5895962 81.5821426,24.9762115 C81.0674244,24.4092115 80.5556564,23.8455 80.0438883,23.2817885 C80.1290962,23.1976731 80.2141306,23.1135577 80.2993385,23.0294423 C80.8442526,23.5294615 81.3891667,24.0294808 82.0067938,24.5961346" id="Fill-35" sketch:type="MSShapeGroup"></path>
                <path d="M89.2890326,15.2447885 C90.6690189,15.24375 91.778457,16.3154423 91.8004966,17.6706346 C91.8225361,19.0315385 90.6481942,20.1828462 89.2529364,20.1683077 C87.900543,20.1542885 86.7775687,19.0232308 86.7819072,17.6794615 C86.7862457,16.3285962 87.9014107,15.2458269 89.2890326,15.2447885 L89.2890326,15.2447885 Z M91.2727629,17.6830962 C91.2717216,16.5866538 90.4147835,15.7048269 89.3273849,15.6809423 C88.2226323,15.6565385 87.2988814,16.5760962 87.3026993,17.6960769 C87.3066907,18.8006538 88.265323,19.7508462 89.341268,19.71675 C90.4248488,19.6824808 91.2738041,18.7885385 91.2727629,17.6830962 L91.2727629,17.6830962 Z" id="Fill-36" sketch:type="MSShapeGroup"></path>
                <path d="M66.956232,28.1445577 C69.1405739,28.1225769 70.9396581,29.8983462 70.941567,32.0780769 C70.9433024,34.2571154 69.1464742,36.0451731 66.9685533,36.0315 C64.8085069,36.0178269 63.0729381,34.30125 63.0290326,32.1350192 C62.9849536,29.9675769 64.7573127,28.1667115 66.956232,28.1445577 L66.956232,28.1445577 Z M66.969768,28.65825 C65.0662131,28.66275 63.5690876,30.1508654 63.5616254,32.0453654 C63.5539897,33.99075 65.0533711,35.4934038 66.9985756,35.4901154 C68.934756,35.4866538 70.4259811,33.9698077 70.4107096,32.0188846 C70.3961323,30.1480962 68.8660344,28.6539231 66.969768,28.65825 L66.969768,28.65825 Z" id="Fill-37" sketch:type="MSShapeGroup"></path>
                <path d="M34.3781787,28.1445577 C36.5731065,28.1573654 38.3525808,29.9552885 38.3161375,32.1230769 C38.2798677,34.2825577 36.5403076,36.0121154 34.3851203,36.0315 C32.210323,36.0510577 30.409677,34.2671538 30.4036031,32.0870769 C30.3975292,29.9066538 32.1868952,28.13175 34.3781787,28.1445577 L34.3781787,28.1445577 Z M37.7852801,32.0403462 C37.7746942,30.1609038 36.2562234,28.6592885 34.3655103,28.65825 C32.4218677,28.6572115 30.9257835,30.1635 30.9361959,32.1113077 C30.9464347,34.0388654 32.4741031,35.5122692 34.4394381,35.4901154 C36.3233832,35.4688269 37.7962131,33.95025 37.7852801,32.0403462 L37.7852801,32.0403462 Z" id="Fill-38" sketch:type="MSShapeGroup"></path>
            </g>
        </g>
    </g>
</svg>