<?xml version="1.0" encoding="utf-8"?><svg xmlns="http://www.w3.org/2000/svg" xmlns:xlink="http://www.w3.org/1999/xlink"><symbol viewBox="0 0 48 48" id="academy" xmlns="http://www.w3.org/2000/svg"><g fill="none"><path data-cap="butt" d="M42 19.4V34"/><path data-cap="butt" data-color="color-2" d="M12 23.6V36c0 3.3 5.4 6 12 6s12-2.7 12-6V23.6"/><path d="M24 32L4 18 24 6l20 12z"/></g></symbol><symbol class="bnc-icon boutline" viewBox="0 0 48 48" id="articles" xmlns="http://www.w3.org/2000/svg"><g fill="none"><path d="M6 46a4 4 0 01-4-4V26h8"/><path d="M10 2v40a4 4 0 01-4 4h36a4 4 0 004-4V2H10z"/><path data-color="color-2" d="M33 12h5M33 20h5M18 28h20M18 36h20M18 12h8v8h-8z"/></g></symbol><symbol viewBox="0 0 48 48" id="award" xmlns="http://www.w3.org/2000/svg"><g fill="none"><path data-cap="butt" data-color="color-2" d="M32.2 14H15.8M15.4 28.9L4 14l6-8h28l6 8-11.4 14.9M10 6l13.1 18M38 6L24.9 24"/><circle cx="24" cy="34" r="10"/><circle cx="24" cy="34" r="4"/></g></symbol><symbol viewBox="0 0 48 48" id="cinema" xmlns="http://www.w3.org/2000/svg"><g fill="none"><path data-cap="butt" d="M35.7 3.4l-4.3 9M25.9 5.4l-4.3 9M16.1 7.4l-4.3 9"/><path data-color="color-2" d="M20 26l8 6-8 6z"/><path d="M4 18h40v28H4zM42.5 10.1L4 18l-1.6-7.8L41 2.3z"/></g></symbol><symbol viewBox="0 0 48 48" id="competitive" xmlns="http://www.w3.org/2000/svg"><g fill="none"><path data-cap="butt" data-color="color-2" d="M32.2 14H15.8M15.4 28.9L4 14l6-8h28l6 8-11.4 14.9M10 6l13.1 18M38 6L24.9 24"/><circle cx="24" cy="34" r="10"/><circle cx="24" cy="34" r="4"/></g></symbol><symbol viewBox="0 0 31.4 41.3" id="emblem" xmlns="http://www.w3.org/2000/svg"><path d="M28.8 5.7c0-2.1-11.5-2.4-13-2.4h-.1c-1.5 0-13 .2-13 2.4C2.7 8 1.6 27.9 7.3 33c5.3 4.9 8.1 5 8.5 4.9.1 0 2.9.2 8.5-4.9s4.5-25 4.5-27.3z"/></symbol><symbol viewBox="0 0 48 48" id="esports" xmlns="http://www.w3.org/2000/svg"><g fill="none"><path data-cap="butt" data-color="color-2" d="M10.58 22A8.58 8.58 0 012 13.42V6h8M37.42 22A8.58 8.58 0 0046 13.42V6h-8"/><path data-color="color-2" d="M24 40v-8"/><path d="M24 32c-7.732 0-14-6.268-14-14V2h28v16c0 7.732-6.268 14-14 14zM34 46H14a6 6 0 016-6h8a6 6 0 016 6z"/></g></symbol><symbol viewBox="0 0 48 48" id="forum" xmlns="http://www.w3.org/2000/svg"><g fill="none"><path data-cap="butt" data-color="color-2" d="M15.665 33.167l-.068.034C18.183 37.22 23.652 40 30 40c1.179 0 2.326-.102 3.432-.284L42 44v-8.081c2.482-2.114 4-4.881 4-7.919 0-3.104-1.57-5.91-4.148-8.041"/><path d="M22 2C10.954 2 2 9.163 2 18c0 3.594 1.499 6.9 4 9.571V38l9.665-4.833A24.5 24.5 0 0022 34c11.046 0 20-7.163 20-16S33.046 2 22 2z"/></g></symbol><symbol viewBox="0 0 48 48" id="game" xmlns="http://www.w3.org/2000/svg"><g fill="none"><path data-color="color-2" d="M24 20V6"/><path d="M36 20H12C6.5 20 2 24.5 2 30s4.5 10 10 10c4.1 0 7.6-2.5 9.2-6h5.7c1.5 3.5 5.1 6 9.2 6 5.5 0 10-4.5 10-10S41.5 20 36 20z"/><path data-color="color-2" d="M12 26v8M8 30h8M34 28l2-2M36 34l2-2"/></g></symbol><symbol viewBox="0 0 48 48" id="garage" xmlns="http://www.w3.org/2000/svg"><g fill="none"><path data-cap="butt" data-color="color-2" d="M16 3.5l8 6 8-6M2 25.3l8.2-5.8L7 10.1M18.4 45.3l-2.9-9.6-10 .2M42.5 35.9l-10-.2-2.9 9.6M41 10.1l-3.2 9.4 8.2 5.8"/><path data-color="color-2" d="M28 30h-8l-4-8 8-6 8 6z"/><circle cx="24" cy="24" r="22"/></g></symbol><symbol viewBox="0 0 48 48" id="items" xmlns="http://www.w3.org/2000/svg"><path d="M10 28s-8 2.8-8 6c0 3.5 12.5 8 20 8 8 0 20-10 20-10"/><path d="M24 4.4c8 1.8 14 9 14 17.6v11"/><path d="M46 30s-5.3 4-18 4-18-4-18-4v-8c0-9.9 8.1-18 18-18s18 8.1 18 18v8z"/></symbol><symbol viewBox="0 0 64 64" id="mods" xmlns="http://www.w3.org/2000/svg"><g fill="none"><path data-cap="butt" data-color="color-2" d="M31.1 41.6l10.8 10.9c2.8 2.8 7.2 2.8 10 0s2.8-7.2 0-10l-10-10M28.1 28.6l-6.5-6.5"/><path d="M53.4 18.1L47.5 24l-7.1-7.1 5.9-5.9c-1.3-.4-2.8-.6-4.3-.5-5.6.5-10.1 5.5-10 11.1 0 1.1.2 2.2.5 3.2l-19.2 17c-2.9 2.5-3 7-.3 9.7 2.7 2.7 7.1 2.6 9.7-.3l17-19.2c1.7.5 3.6.7 5.6.3 4-.8 7.3-3.8 8.4-7.7.5-2.4.3-4.6-.3-6.5z"/><path data-color="color-2" d="M17.3 23.5l4.3-1.4 1.4-4.2-5.7-5.7-5.6 5.7zM41.9 42.5l4 4"/></g></symbol><symbol id="teamspeak" viewBox="0 0 333.92 333.92" xmlns="http://www.w3.org/2000/svg"><defs><style>.mcls-1{fill:#fff}</style></defs><path class="mcls-1" d="M69.88 124a26.63 26.63 0 00-26.23 26.59 26.08 26.08 0 0026.56 26.07c14.73 0 26.08-11.52 26-26.43A26.13 26.13 0 0069.88 124z"/><path class="mcls-1" d="M270 0H64A64.15 64.15 0 000 64v206a64.15 64.15 0 0064 64h206a64.15 64.15 0 0064-64V64a64.15 64.15 0 00-64-64zm26.5 175.11c-1.2 6.06-2 12.21-3.66 18.15-9.08 33.16-29.63 57.45-58.77 74.85-30.44 18.18-63.44 26.08-98.86 25-21.71-.66-42.32-5.91-62.81-12.58 3.07-3.81 4.58-4.24 8.82-3 55 15.82 106.18 7.86 152.72-25.68 21.43-15.45 36.36-36.4 42.33-62.17 8.66-37.39 0-70.83-26.64-99.23-24.21-25.89-54.14-40.45-88.79-45.86a173.46 173.46 0 00-60.52.79c-5.65 1.1-5.66 1.07-5.66 6.9 0 19.53.05 39.05-.06 58.58a6.66 6.66 0 003.09 6.07 38.55 38.55 0 01-21.23 69.52c-20 1-38.23-15.64-39-35.67-.67-17.24 6.62-29.8 21.92-37.84a6.66 6.66 0 002.87-4.06c3.47-15.74 7-31.49 10-47.32 1.51-7.88 5.81-13.09 13.26-15.06 11.2-3 22.55-5.35 33.9-7.71 4.64-1 9.43-1.21 14.15-1.78h14c8.43 1.07 16.88 2 25.28 3.24 29.77 4.47 56.5 15.82 79.26 35.8 19.8 17.39 35.19 37.71 41.55 63.85 1.09 4.47 1.93 9 2.88 13.5v21.73zM137 176.38c-1.34-17.25-6.36-33.23-17.25-46.89-3.91-4.91-8.86-9-13.21-13.56-1-1.09-2.27-2.65-2.28-4-.15-17.58-.09-35.16-.08-52.75a9.24 9.24 0 01.32-1.49c1.38.57 2.68 1 3.92 1.63a60.94 60.94 0 0119.94 15.75 119.35 119.35 0 0124.64 48.6c1.32 5.2.62 10-3.48 13.9-3 2.85-3 6.21-.86 9.52 6.4 10 12.79 20 19.37 29.91 4.88 7.34 4.83 7.81-3.52 10.68-1.83.63-3.67 1.24-5.47 1.93-5.28 2-6.67 4.94-5 10.3a17.2 17.2 0 001.23 3.25c1.68 3 1.3 5.09-1.82 7.08-3.6 2.3-3.2 4 1.57 8.3-5.88 4.62-5 10.45-3.39 16.84 2.59 10.54-1.62 16.27-12.33 18-9.05 1.42-20.51.69-31-2 .6-.65 1.06-1.2 1.57-1.7 21.05-20.07 29.38-44.73 27.13-73.3z"/></symbol><symbol viewBox="0 0 48 48" id="trading" xmlns="http://www.w3.org/2000/svg"><path data-cap="butt" d="M30 22.4l4 6.7M16 25.7l4-6.8M26 36h-8.1"/><circle cx="10" cy="36" r="8"/><circle cx="38" cy="36" r="8"/><circle cx="24" cy="12" r="8"/></symbol><symbol viewBox="0 0 657 631" id="ts3" xmlns="http://www.w3.org/2000/svg"><path d="M245 6.6c-26.9 1.3-55.3 4.7-77 9.3-14.7 3.2-50.9 15.3-51.8 17.3-.2.5-1 .8-1.8.8s-1.4.4-1.4.9-.8 1.2-1.8 1.5c-2.7.9-8 6.3-10.7 11-2.4 4.1-8.6 31.9-26.1 116.1-6.7 32.3-5.4 28.6-10.4 31.2-11.3 6-15 8.5-21.8 14.8-13.7 12.7-21.7 25.8-26.9 44.1-2.5 8.9-2.8 11.5-2.8 24.9 0 12.5.4 16.4 2.3 23.4 4.6 17 12.7 30.8 24.8 42.6 8.6 8.3 15.1 12.4 27.7 17.5 14.6 5.8 18.4 6.5 36.2 6.5 13.6-.1 17.2-.4 23.9-2.3 33.1-9.5 57-33.5 65.7-66.2 3.3-12 3.3-32.7 0-45-1.2-4.7-2.3-9-2.4-9.5-.1-.6-1.9-4.2-3.9-8.1-5.4-10.6-12.8-20.2-20.4-26.4-3.7-3-8-6.6-9.6-8l-2.8-2.5-.7-84.6-.6-84.6 4.2-1.6c2.3-.9 5.4-1.7 6.9-1.7s4.3-.5 6.2-1.1c9.3-2.8 79.5-7.6 94-6.5 20.7 1.7 33.9 3.1 47.5 5 7 .9 29.2 6.1 44.5 10.3 16.4 4.5 50.5 17 59.9 22 2.4 1.3 4.8 2.3 5.3 2.3 2.2 0 32.5 16.2 33.8 18.1.3.4 1.7 1.2 3.2 1.8 6.1 2.3 35.7 23.1 47.8 33.6 8.6 7.5 32.8 32.4 38.4 39.7 7.4 9.6 18.5 25.9 22.3 32.8 3.7 6.6 8.7 16.3 8.8 17 0 .3 1.1 2.4 2.3 4.7 5.3 10.2 15 40.5 17.8 55.8 4.9 27 5.9 65 2.4 90-1.1 7.7-2 15.2-2 16.8 0 1.5-2.1 9.2-4.6 17-5.6 17.7-7.1 21.4-13.3 34.9-1.7 3.7-3.1 7.2-3.1 7.8 0 .5-.4 1-1 1-.5 0-1 .6-1 1.3 0 2.6-19.4 33.5-23 36.7-.4.3-2.3 2.7-4.3 5.4-12.1 16-36.4 38.8-58.2 54.6-3.8 2.7-9.2 6.7-12 8.7-11.3 8.3-47.4 27.1-65.5 34.2-3 1.2-6.4 2.6-7.5 3.1-11.2 5.1-43.3 16-47.1 16-1 0-3.1.4-4.8.9-7 2.2-26.4 6.7-31.6 7.5-1.9.2-10.2 1.6-18.5 2.9-17.4 2.9-39.7 4.7-57.6 4.7-17.6 0-52.8-2.6-68.9-5.1-7.4-1.2-15.7-2.5-18.5-2.9-5-.8-10.1-2-18.5-4.4-2.5-.8-6.5-1.9-9-2.6-4.3-1.2-7.5-2.4-13.2-5-2.3-1.1-3.2-1-6 .4-1.8 1-5.4 2.8-8 4.2-2.7 1.3-4.8 2.8-4.8 3.4 0 1.3 4.6 3.6 9 4.5 1.9.4 5.8 1.9 8.5 3.5 7.8 4.3 31.2 11.5 50 15.4 4.4.9 10 2.2 12.5 2.7 2.5.6 7.2 1.5 10.5 1.9 3.3.4 9.2 1.2 13 1.8 19.6 3.2 29.4 3.7 67.5 3.7 39.3 0 47.5-.5 70-4.1 31.3-5 68.9-15 89.5-23.9 5.5-2.3 11.8-4.8 14-5.5 13.1-4.1 46.2-21.3 67-34.8 7.6-5 28-19.9 32.9-24.1 16.9-14.5 35.5-33.2 47.2-47.6 10.5-12.9 26.3-38.3 34.8-55.9 22.8-47.3 30.7-104.8 22-158.6-4.3-26.7-11.5-48.4-24.6-74.4-11.8-23.6-14.4-27.4-40.6-60.6-14.5-18.3-39.3-40.6-63.5-57-5.6-3.8-10.7-7.3-11.2-7.8-.6-.5-3.2-2.2-5.9-3.8-2.6-1.6-6-3.7-7.4-4.6-7-4.4-33.7-18.2-42.7-22.1-4.4-1.9-10-4.3-12.5-5.5-2.5-1.1-6.5-2.7-9-3.5-2.5-.9-7-2.5-10-3.7-28.2-10.8-62.4-18.9-96-22.9-13.5-1.6-55.7-2.4-76-1.5z"/><path d="M230 49.2c-22.4 1.1-21.9.7-11.2 8.1 10.8 7.5 21.9 17.5 31.5 28.3C260.6 97.2 262 98.9 262 100c0 .6.3 1 .8 1 .4 0 2.3 2.4 4.2 5.2 1.9 2.9 3.8 5.7 4.2 6.3 1 1.2 8.4 12.4 11.5 17.4 1.2 2 3.1 5.4 4.1 7.6 5 10.3 13.4 28.3 14.4 30.5.5 1.4 1.6 3.8 2.3 5.5.7 1.6 1.9 4.8 2.8 7 .8 2.2 2.9 7.4 4.5 11.5 5.8 14.4 10.5 36.3 10.5 48.5 0 11-1.5 14.8-8.4 20.6-3.8 3.2-4.9 4.7-4.9 7 0 3.6 8.9 21.1 14.6 28.9 5.7 7.7 17.4 25 17.4 25.7 0 .3 1.4 2.2 3 4.3 1.7 2.1 3 4.1 3 4.4 0 .3 1.7 3.2 3.7 6.3 4.9 7.6 5.6 8.7 9.1 16 4.1 8.4 4.5 9.9 3.7 14.9-.7 5.1-6.6 11.9-12.5 14.6-8 3.6-11.2 4.8-13 4.8-3.4 0-10.4 3.1-12.7 5.7-3.3 3.5-3 8.5 1.3 17.3 5.2 10.9 4.7 14.9-3 23.4-2 2.2-3.6 4.5-3.6 5.1 0 .6 1.3 2.4 3 4 2.6 2.5 3 3.6 3 8.4 0 5.4-.1 5.6-5.5 10.6l-5.5 5.2v7.6c0 7.5.9 12.6 3.6 21.6.8 2.5 1.4 5.9 1.4 7.6 0 4.2-3.3 13.5-7 20.2l-3 5.3h2.6c3.2 0 21.9-3.6 29.4-5.7 16.6-4.6 42-13.6 54.5-19.3 27.2-12.5 46.2-22.8 52-28.1 1.7-1.5 6.7-5.4 11.3-8.7 22-15.6 45.5-40.5 60.8-64.4 7.3-11.3 18.5-35.1 21.4-45.3.4-1.7 1.6-5.5 2.5-8.5.9-3 2-7.5 2.4-10 .5-2.5 1.3-6.8 1.9-9.5 3.2-15.1 4.4-49.5 2.1-64.7-2.8-19.8-6.8-34.6-13.8-51.3-1.2-2.8-9.5-19.2-12.3-24.2-1.3-2.2-5.3-8.3-9.1-13.5-21.3-29.4-44.2-50-81.2-73-22-13.7-31.6-18-72.4-32.8-25.5-9.2-60.5-16.9-91.1-20-11.3-1.2-21.4-2.2-22.5-2.4-1.1-.1-9 .1-17.5.6z"/><path d="M176 128.4v70.4l9.3 7.5c9.7 7.9 20.6 18.8 27.2 27.2 2.2 2.7 4.3 5.2 4.6 5.5.3.3 3.1 4.1 6.1 8.5 12.6 18.3 21.7 37.7 27.7 59 3.4 11.8 7.1 37.8 7.1 49.5-.1 19.7-6.5 57.9-11.9 71-1.1 2.5-4.1 9.9-6.7 16.5-2.6 6.6-7.2 16.7-10.2 22.5-3 5.8-6.2 11.8-7 13.5-3.4 6.6-11 17.6-19.6 28.5-5 6.3-10.4 13.4-11.9 15.7l-2.7 4.2 3.8.7c2 .3 6.4 1.3 9.7 2.1 7.2 1.8 39 4.4 46 3.8 2.8-.3 8.2-.7 12-1 10.5-.7 19.9-4 26.1-9.2 3.1-2.6 7.3-9.8 9-15.2 2.5-8.3 1.8-15.4-3.3-30.7-1.3-3.9-2.3-8.1-2.3-9.3 0-3.4 2.3-7.1 7.9-12.6 2.9-2.8 5.1-5.8 5.1-7 0-1.1-2-4.1-4.5-6.5-2.5-2.4-4.5-5.3-4.5-6.3 0-1.1 3-5.1 6.6-8.9 6-6.4 6.5-7.2 5.8-10.1-.3-1.8-1.2-3.9-1.8-4.7-2.8-3.6-6.6-14.5-6.6-19.2 0-7.2 7.2-12.6 23.6-17.7 8.7-2.7 10.7-3.7 13.8-7.1 2.5-2.7 3.6-5 3.6-7 0-3.8-5.9-15.6-11.4-22.8-2.2-3-6.4-9.1-9.1-13.6-2.8-4.5-7.7-12.2-11-17.1-15.8-24.3-20.4-32-22.9-38.6-1.7-4.5-1.7-4.7.3-8.7 1.2-2.3 3.4-5.6 4.9-7.4 10.6-12.4 11.6-17.6 6.6-35.4-.8-2.8-1.4-5.9-1.4-6.8 0-2-9.3-30.5-11.5-35.3-.8-1.7-1.5-3.3-1.5-3.6 0-.9-6.7-15.4-11.7-25.2-16.7-33.1-42.2-65.1-63.2-78.8-6.9-4.6-22.7-10.7-27.6-10.7H176v70.4z"/></symbol></svg>