<svg enable-background="new 0 0 647.2 751" viewBox="0 0 647.2 751" xmlns="http://www.w3.org/2000/svg"><g clip-rule="evenodd" fill="#fff" fill-rule="evenodd"><path d="m588.4 0h-529.6c-43 0-58.8 15.8-58.8 58.8v518.2c0 4.9.2 9.4.6 13.6 1 9.4 1.2 18.5 9.9 28.8.9 1 9.8 7.6 9.8 7.6 4.8 2.3 8.1 4.1 13.5 6.3l260.8 109.3c13.5 6.2 19.2 8.6 29 8.4 9.8.2 15.5-2.2 29-8.4l260.8-109.3c5.4-2.2 8.7-3.9 13.5-6.3 0 0 8.9-6.6 9.8-7.6 8.7-10.3 8.9-19.4 9.9-28.8.4-4.2.6-8.7.6-13.6v-518.2c0-43-15.9-58.8-58.8-58.8zm-231.8 99.8h43.8v287.9h-43.8zm-19.1 391.4.6 1 .6-1 .6-1.1.7-1 .6-1.1.6-.9.6-1.1.7-1 .6-1.1.6-1 .6-.9.7-1.1.6-1 .6-1.1.6-1 .7-1.1.6-1 .6-1.1.6-1 .6-1 .7-1.1.6-1 .6-1.1.6-1 .7-1.1.6-1 .6-1 .6-1.1.7-.9.6-1.1.6-1 .6-1.1.7-.9.6-1.1.6-1h1.2 1.2 1.1 1.2 1.2 1.2 1.1 1.2 1.2 1.2 1.1 1.2 1.2 1.2 1.1 1.2 1.2 1.2 1.1 1.2 1.2v1.2 1.2 1.2 1.2 1.2 1.2 1.2 1.2 1.2 1.2 1.2 1.2 1.2 1.2 1.2 1.2 1.2 1.2 1.1 1.2 1.2 1.2 1.2 1.2 1.2 1.2 1.2 1.2 1.2 1.2 1.2 1.2 1.2 1.2 1.2 1.2 1.2 1.2 1.2 1.2 1.2 1.2 1.2 1.2 1.2 1.2 1.2 1.2 1.2 1.2 1.2 1.2 1.2 1.2 1.1 1.2 1.2 1.2 1.2 1.2 1.2 1.2 1.2 1.2 1.2 1.2 1.2 1.2 1.2 1.2 1.2 1.2 1.2h-1.2-1.2-1.2-1.3-1.2-1.2-1.2-1.2-1.2-1.3-1.2-1.2-1.4-1.2-1.2-1.3-1.2-1.2-1.2v-1.2-1.2-1.2-1.2-1.2-1.2-1.2-1.2-1.2-.7-1.2-1.2-1.2-1.2-1.2-1.2-1.2-1.2-1.2-1.2-1.2-1.2-1.2-1.2-1.2-1.2-1.2-1.2-1.2-1.2-1.2-1.2-1.2-1.2-1.2-1.2-1.2-1.2-1.2-1.2-1.2-1.2-1.2l-.6 1-.7 1.1-.6 1-.7 1-.6 1.1-.7 1-.6 1-.6 1.1-.7 1-.6 1-.7 1-.6 1.1-.7 1-.6 1-.6 1.1-.7 1-.6 1-.7 1.1-.6 1-.7 1-.6 1.1-.6 1-.7 1-.6 1.1-.7 1-.6 1-.7 1-.6 1.1-.6 1-.7 1-.6 1.1-.7 1-.6 1-.7 1.1-.6 1h-.5l-.7-1.1-.6-1-.7-1.1-.6-1-.7-1.1-.6-1-.7-1.1-.6-1-.7-1.1-.6-1-.7-1.1-.6-1-.7-1.1-.6-1-.7-1.1-.6-1-.7-1.1-.7-1-.6-1.1-.7-1-.6-1.1-.7-1-.6-1.1-.7-1-.6-1.1-.7-1-.6-1.1-.7-1-.6-1.1-.7-1-.6-1.1-.7-1-.6-1.1-.7-1v1.2 1.2 1.2 1.2 1.2 1.2 1.2 1.2 1.2 1.2 1.1 1.2 1.2 1.2 1.2 1.2 1.2 1.2 1.2 1.2 1.2 1.2 1.2 1.2 1.2 1.2 1.2 1.2 1.2 1.2 1.2 1.2 1.1 1.2 1.2 1.2 1.2 1.2 1.2 1.2 1.2 1.2 1.2h-1.2-1.2-1.2-1.2-1.2-1.2-1.2-1.2-1.2-1.2-1.2-1.3-1.2-1.2-1.2-1.2-1.2-1.2-1.2v-1.2-1.2-1.2-1.2-1.2-1.2-1.2-1.2-1.2-1.4-1.2-1.2-1.2-1.2-1.2-1.2-1.2-1.2-1.1-1.2-1.2-1.2-1.2-1.2-1.2-1.1-1.2-1.2-1.2-1.2-1.2-1.2-1.2-1.2-1.2-1.2-1.2-1.2-1.2-1.2-1.2-1.2-1.2-1.2-1.2-1.2-1.2-1.2-1.2-1.2-1.2-1.2-1.2-1.2-1.1-1.2-1.1-1.2-1.2-1.2-1.2-1.2-1.2-1.2-1.2-1.2-1.2-1.2-1.2-1.2-1.2-1.2-1.2h1.2 1.2 1.1 1.2 1.2 1.2 1.1 1.2 1.2 1.2 1.1 1.2 1.2 1.2 1.1 1.2 1.2 1.2 1.1 1.2 1.2l.6 1 .6 1.1.7.9.6 1.1.6 1 .6 1.1.6.9.7 1.1.6 1 .6 1 .6 1.1.6 1 .7 1.1.6 1 .6 1.1.6 1 .7 1 .6 1.1.6 1 .6 1.1.6 1 .7 1.1.6 1 .6 1.1.6.9.6 1 .7 1.1.6 1 .6 1.1.6.9.6 1.1.7 1zm-122.6-391.4h68.8c35.6 0 53.2 17.7 53.2 53.5v76.5c0 35.8-17.6 53.5-53.2 53.5h-25v104.5h-43.8zm-119.4 0h97.4v39.9h-53.6v81.4h51.6v39.9h-51.6v86.8h54.4v39.9h-98.2zm82.9 395.6v1.2 1.2 1.1 1.2 1.2 1.2 1.2 1.2 1.1 1.2 1.2 1.2 1.2 1.2 1.2 1.1 1.2 1.2 1.2 1.2 1.2 1.2 1.1 1.2 1.2 1.2 1.2 1.2 1.1 1.2 1.2 1.2l-.8.7-1 .7-.8.6-1 .7-.9.6-.9.7-1 .6-.9.6-1.1.6-1.1.6-1.1.6-1.1.5-1.1.6-1.2.5-1.1.5-1.2.5-1.1.5-1.1.4-1.1.4-1.1.4-1.2.4-1.1.4-1.2.2-1.1.2-1.2.2-1.2.2-1.2.1-1.3.1-1.2.1-1.3.1-1.2.1-1.3.1h-1.3-1.3-1.3-1.2l-1.2-.1-1.3-.1-1.2-.1-1.2-.1-1.2-.1-1.2-.2-1.2-.2-1.1-.2-1.2-.2-1.1-.4-1.2-.2-1.1-.4-1.1-.5-1.1-.4-1.2-.5-1.1-.5-1.1-.5-1.1-.5-1.1-.6-.9-.6-1.1-.6-1-.6-.9-.6-1-.7-.9-.7-1-.7-.8-.7-.8-.7-.8-.8-.8-.7-.8-.8-.8-.8-.7-.8-.7-1-.7-.8-.6-1-.7-1-.6-1-.6-1-.6-1.1-.6-1-.5-1.1-.5-1.1-.5-1.1-.5-1.1-.4-1-.5-1.1-.2-1.1-.4-1.1-.2-1.2-.4-1.1-.2-1.2-.1-1.1-.2-1.2-.1-1.1-.1-1.2-.1-1.2-.1-1.2v-1.3-1.2-.2-1.2l.1-1.3v-1.2l.1-1.2.1-1.3.2-1.2.1-1.2.2-1.1.4-1.2.2-1.2.4-1.1.4-1.2.4-1.1.5-1.2.5-1.1.5-1.1.5-1.1.5-1.1.6-1.1.6-1 .6-1 .6-1 .6-1 .7-1 .7-1 .7-1 .7-.8.8-.8.7-.8.8-.8.8-.8.8-.7 1-.8.8-.7.9-.7 1-.6.9-.7 1-.6.9-.6 1.1-.6 1.1-.6 1.1-.6 1.1-.5 1.1-.5 1.2-.6.9-.4 1.2-.4 1.1-.5 1.1-.2 1.1-.4 1.2-.2 1.1-.4 1.2-.2 1.2-.1 1.2-.2 1.2-.1 1.2-.1 1.2-.1 1.2-.1h1.3 1.2 1.3 1.3l1.3.1 1.3.1h1.2l1.2.1 1.3.2 1.1.1 1.2.2 1.2.2 1.1.2 1.1.2 1.1.2 1.1.4 1.1.2.9.4 1.1.4 1.1.5 1.1.5 1.1.5 1.1.6 1.1.5 1 .6 1.1.6.9.6 1.1.6.9.7.9.6 1 .7.9.7 1 .8.9.7-.7 1-.8.8-.7 1-.8 1-.7 1-.7.8-.8 1-.7 1-.7.8-.8 1-.7 1-.8 1-.7.8-.7 1-.8 1-.7 1-.8.8-.7 1-1-.7-.9-.8-1-.6-.9-.7-.9-.6-1-.6-1-.6-1.4-.6-1-.5-.9-.5-1-.4-1.1-.4-1-.2-1.1-.2-1.2-.2-1.2-.2-1.2-.1-1.3-.3-1.3-.1h-1.3-1.2l-1.2.1-1.1.1-1.2.2-1.1.2-1.1.4-1.1.4-1.1.5-1.1.5-1 .6-.9.6-1 .6-.8.7-.8.7-.8.7-.7.8-.8.8-.7 1-.6.8-.6 1-.6 1.1-.6 1-.5 1.1-.4 1.1-.5 1.1-.4 1.2-.2 1.2-.2 1.1-.2 1.3-.1 1.2-.1 1.2v1.3.2 1.2l.1 1.2.1 1.1.1 1.2.2 1.1.2 1.1.2 1.1.4 1.1.4 1 .5 1.2.5 1.1.6 1.1.6 1 .6 1 .7 1 .7.8.8.8.7.8.8.7 1 .7.9.7.9.6 1 .6 1.1.5 1.1.5 1.1.5 1.2.4 1.2.4 1.2.2 1.2.2 1.2.1 1.3.1h1.3 1.4l1.3-.1 1.3-.1 1.2-.1 1.2-.2 1.2-.2 1.2-.4 1.1-.2 1.1-.5 1-.5 1.1-.5.8-.5 1-.6v-1.2-1.2-1.5-1.2-1.3-1.2-1.2-1.2-1.2h-1.2-1.1-1.2-1.2-1.2-1.1-1.2-1.2-1.1-1.1-1.2-1.2-1.2-1.1-1.2v-1.2-1.1-1.2-1.2-1.2-1.1-1.2-1.2-1.2-1.1-1.2-1.2-1.2-1.1-1.2h1.2 1.2 1.2 1.2 1.2 1.2 1.2 1.2 1.2 1.2 1.2 1.2 1.2 1.2 1.2 1.2 1.2 1.2 1.2 1.2 1.2 1.2 1.2 1.2 1.2 1.2 1.2 1.2 1.2 1.2 1.2 1.2 1.2v1.3zm18.4 49.5h-1.2-1.2-1.2-1.2-1.2-1.2-1.2-1.2l.5-1.1.5-1.1.5-1.1.5-1.2.4-1.1.5-1.1.5-1.1.5-1.1.5-1.1.5-1.2.5-1.1.5-1.1.4-1.1.5-1.1.5-1.1.5-1.2.5-1.1.5-1.1.5-1.1.5-1.1.4-1.1.5-1.2.5-1.1.5-1.1.5-1.1.5-1.1.5-1.1.5-1.2.4-1.1.5-1.1.5-1.1.5-1.1.5-1.1.5-1.2.5-1.1.5-1.1.4-1.1.5-1.1.5-1.1.5-1.2.5-1.1.5-1.1.5-1.1.5-1.1.4-1.1.5-1.1.5-1.2.5-1.1.5-1.1.5-1.1.5-1.1.5-1.1.4-1.2.5-1.1.5-1.1.5-1.1.5-1.1.5-1.1.5-1.2.5-1.1.4-1.1.5-1.1.5-1.1.5-1.1.5-1.2.5-1.1.5-1.1.5-1.1.4-1.1.5-1.1.5-1.2.5-1.1.5-1.1.5-1.1.5-1.1.5-1.1.4-1.2.5-1.1.5-1.1.5-1.1h1.2 1.1 1.2 1.2 1.2 1.1 1.2 1.2 1.2 1.1 1.2 1.2 1.2 1.1 1.2 1.2 1.2 1.1 1.2l.5 1.1.5 1.1.5 1.1.5 1.2.4 1.1.5 1.1.5 1.1.5 1.1.5 1.1.5 1.2.5 1.1.5 1.1.4 1.1.5 1.1.5 1.1.5 1.2.5 1.1.5 1.1.5 1.1.5 1.1.4 1.1.5 1.2.5 1.1.5 1.1.5 1.1.5 1.1.5 1.1.5 1.2.4 1.1.5 1.1.5 1.1.5 1.1.5 1.1.5 1.2.5 1.1.5 1.1.4 1.1.5 1.1.5 1.1.5 1.1.5 1.2.5 1.1.5 1.1.5 1.1.4 1.1.5 1.1.5 1.2.5 1.1.5 1.1.5 1.1.5 1.1.5 1.1.4 1.2.5 1.1.5 1.1.5 1.1.5 1.1.5 1.1.5 1.2.5 1.1.4 1.1.5 1.1.5 1.1.5 1.1.5 1.2.5 1.1.5 1.1.5 1.1.4 1.1.5 1.1.5 1.2.5 1.1.5 1.1.5 1.1.5 1.1.5 1.1.4 1.2.5 1.1.5 1.1.5 1.1h-1.2-1.2-1.1-1.2-1.2-5.6-1.2-1.1-1.2-1.2-1.2-1.1-1.2-1.1-1.2-1.2-1.2-1.2-1.1-1.2-1.2l-.5-1.1-.4-1.1-.5-1.1-.5-1.2-.4-1.1-.5-1.1-.5-1.1-.4-1.1-.5-1.1-.5-1.1-.4-1.1-.5-1.2-.5-1.1-.4-1.1-.5-1.1h-1.2-1.2-1.2-1.2-1.1-1.2-1.2-1.2-1.2-1.2-.5-1.2-1.2-1.2-1.1-1.2-1.2-1.2-1.2-1.2-1.2-1.1-1.2-1.2-1.1-1.2-1.2-1.1-1.2l-.5 1.1-.4 1.1-.5 1.1-.4 1.5-.4 1.1-.5 1.1-.5 1.1-.4 1.1-.5 1.1-.5 1.1-.4 1.1-.5 1.2-.5 1.1-.4 1.1-.5 1.1h-.9-1.2-1.2-1.2-1.2-1.2-1.2-1.2-1.2-1.2-1.2-1.2zm124.8 145.4-122.8-42.2h250.7zm149.1-163.9v1.1 1.2 1.2 1.2 1.1 1.2 1.2 1.1 1.2 1.2 1.1 1.2 1.2 1.2 1.1 1.2h-1.2-1.2-1.2-1.2-1.2-1.2-1.2-1.2-1.2-1.3-1.2-1.2-1.2-1.2-1.2-1.2-1.2-1.2-1.2-1.2-1.2-1.2-1.2-1-1.2-1.2-1.2-1.2-1.2-1.3-1.2-1.2-1.2-1.1-1.2-1.2-1.2-1.2-1.2-1.2-1.2-1.2-1.2-1.2-1.2-1.2-1.2-1.2-1.2-1.2-1.2-1.2-1.2-1.2-1.2-1.2-1.2-1.2v-1.2-1.2-1.2-1.2-1.2-1.2-1.2-1.2-1.2-1.3-1.2-1.2-1.2-1.2-1.2-1.2-1.2-1.2-1.1-1.2-1.2-1.2-1.2-1.2-1.2-1.1-1.2-1.2-1.2-1.2-1.2-1.2-1.2-1.2-1.2-1.2-1.2-1.2-1.2-1.2-1.2-1.2-1.2-1.2-1.2-1.2-1.2-1.2-1.2-1.2-1.2-1.2-1.2-1.2-1.1-1.2-1.1-1.2-1.2-1.2-1.2-1.2-1.2-1.2-1.2-1.2-1.2-1.2-1.2-1.2-1.2-1.2-1.2h1.2 1.2 1.2 1.2 1.2 1.2 1.2 1.2 1.2 1.2 1.2 1.2 1.2 1.2 1.1 1.2 1.2 1.2 1.2 1.2 1.2 1.2 1.2 1.2 1.2 1.2 1.2 1.2 1.2 1.2 1.2 1.2 1.2 1.2 1.2 1.2 1.2 1.2 1.2 1.2 1.2 1.2 1.2 1.1 1.2 1.2 1.2 1.2 1.2 1.2 1.2 1.2 1.2 1.2 1.2 1.2 1.2 1.2v1.2 1.1 1.2 1.2 1.2 1.1 1.2 1.2 1.1 1.2 1.2 1.1 1.2 1.2 1.2 1.1 1.2h-1.2-1.2-1.2-1.2-1.2-1.2-1.1-1.2-1.2-1.2-1.2-1.2-1.2-1.2-1.2-1.2-1.2-1.2-1.2-1.1-1.2-1.2-1.2-1.2-1.2-1.2-1.2-1.4-1.2-1.2-1.2-1.2-1.1-1.1-1.2-1.2-1.2-1.2-1.2v1.2 1.2 1.2 1.2 1.2 1.1 1.2 1.2 1.2 1.2 1.2 1.2h1.2 1.2 1.2 1.2 1.2 1.2 1.2 1.2 1.1 1.2 1.2 1.2 1.2 1.2 1.2 1.2 1.2 1.2 1.2 1.2 1.2 1.2 1.2 1.2 1.2 1.2 1.1 1.2 1.2 1.2 1.2 1.2 1.2 1.2 1.2v1.2 1.1 1.2 1.2 1.1 1.2 1.2 1.1 1.2 1.2 1.2 1.1 1.2 1.2 1.1 1.2h-1.2-1.6-1.2-1.2-1.2-1.2-1.2-1.2-1.1-1.2-1.2-1.2-1.2-1.2-1.2-1.2-1.2-1.2-1.2-1.2-1.2-1.2-1.2-.9-1.2-1.2-1.1-1.2-1.2-1.1-1.2-1.2-1.2-1.2-1.2v1.2 1.3 1.2 1.2 1.3 1.2 1.2 1.3 1.2 1.2 1.3 1.2h1.2 1.2 1.2 1.2 1.2 1.2 1.2 1.2 1.2 1.3 1.2 1.2 1.2 1.2 1.2 1.2 1.2 1.2 1.2 1.2 1.2 1.2 1.2 1.2 1.2 1.2 1.2 1.2 1.2 1.3 1.2 1.2 1.2 1.2 1.2 1.2 1.2 1.2 1.2v.9zm-47.1-189.7v-185.9c0-35.8 17.6-53.5 53.2-53.5h21.3c35.6 0 52.8 17.3 52.8 53.1v58.8h-43v-56.4c0-11.5-5.3-16.9-16.4-16.9h-7.4c-11.5 0-16.8 5.3-16.8 16.9v181.8c0 11.5 5.3 16.9 16.8 16.9h8.2c11 0 16.4-5.3 16.4-16.9v-65h43v67c0 35.8-17.6 53.5-53.2 53.5h-21.7c-35.6.1-53.2-17.6-53.2-53.4zm129.4 181.4v.2 1.3l-.1 1.3-.1 1.2-.1 1.3-.2 1.2-.4 1.2-.2 1.1-.4 1.2-.5 1.1-.5 1-.5 1.1-.6 1-.6 1-.7 1-.6 1-.7.8-.8.8-.7.7-1 .8-.8.7-1 .7-.9.6-.9.7-1.1.6-1.1.5-1.1.6-1.2.5-1.2.5-1.2.4-1.2.4-1.1.4-1.2.2-1.1.2-1.1.2-1.2.2-1.2.1-1.1.1-1.2.1-1.3.1-1.2.1h-.9-1.3-1.3-1.2l-1.2-.1h-1.3l-1.2-.1-1.2-.1-1.3-.1-1.2-.2-1.2-.1-1.2-.2-1.2-.2-1.2-.2-1.2-.2-1.2-.4-1.1-.2-1.2-.4-1.2-.4-1.1-.5-1.2-.4-1.1-.4-1.2-.5-1.1-.5-1.1-.5-1.1-.6-1.1-.5-1.1-.6-.9-.6-1.1-.6-.9-.6-1-.6-.9-.7-.9-.7-1-.7-1-.7-.8-.7-.9-.8.7-1 .8-.8.7-1 .8-1 .7-.8.7-1 .8-1 .7-.8.8-1 .7-.8.8-1 .7-1 .7-.8.8-1 .7-1 .8-.8.7-1 .9.7 1.1.7 1 .7 1.1.7 1 .6 1.1.7.9.6 1.1.5.9.6 1.1.5 1.1.5 1.1.5 1.1.4 1.1.5 1.2.4 1.2.4 1.1.4 1.2.2 1.2.2 1.2.2 1.3.1 1.2.2h1.2l1.3.1h1.2 1.4l1.3-.1 1.2-.2 1.1-.2 1.1-.2 1-.4.8-.5 1-.7.7-.8.5-1 .4-1.1.1-1.2v-.2l-.1-1.4-.5-1.2-.6-.8-.8-.7-1-.7-.9-.5-1.1-.5-1.2-.5-1.4-.6-.8-.2-.9-.2-1.1-.4-1.1-.2-1.2-.4-1.2-.2-1.3-.4-1.2-.2-1.3-.4-1.2-.2-1.2-.4-1.2-.2-1.2-.4-1.1-.4-1.2-.2-1.1-.4-1.1-.4-1.1-.4-1.3-.5-1.2-.5-1.2-.5-.9-.2-1.1-.6-1.2-.6-1-.6-1.1-.6-.9-.7-1-.6-.8-.7-.8-.8-.8-.8-.7-.8-.7-.8-.6-.8-.6-1-.6-1.1-.5-.8-.4-1-.4-1.1-.4-1-.2-1.2-.2-1.1-.1-1.2-.1-1.2-.1-1.3v-1.3-.3-1.2l.1-1.2.1-1.1.1-1.2.2-1.1.2-1.1.4-1.1.2-1.1.5-1.1.5-1.1.5-1.1.6-1.1.6-1.1.7-1 .7-1 .8-1 .8-.8.8-1 1-.8.8-.6 1-.7 1-.7.9-.6 1.1-.6 1.1-.5 1.1-.6 1.1-.5 1.2-.4 1.2-.5 1.1-.4.9-.2 1.1-.2 1.1-.2 1.2-.2 1.1-.2 1.2-.1 1.2-.1 1.2-.1 1.2-.1h1.2 1.3 1.3 1.3l1.3.1 1.3.1h1.2l1.3.1 1.2.2 1.3.1 1.2.2 1.1.2 1.2.2 1.2.2 1.1.2 1.2.4 1.1.4 1.1.2 1.2.5 1.1.4 1.1.5 1.1.5 1.2.5 1.1.6.9.5 1.1.6 1.1.6.9.6 1.1.7 1 .6 1 .7.9.7.9.7-.7 1-.6 1-.7 1-.7 1-.7 1.1-.6 1-.7 1-.7 1-.6 1-.7 1-.7 1-.6 1-.7 1.1-.7 1-.7 1-.6 1-.7 1-1-.7-1.1-.6-1-.6-1-.7-1.1-.5-1-.6-1.1-.5-.9-.5-1.1-.5-.9-.5-1.1-.4-1-.5-1.3-.4-1.2-.4-1.2-.4-1.2-.2-1.2-.2-1.2-.2-1.2-.1-1.2-.1-1.1-.1h-1.2-1.4l-1.3.2-1.2.2-1.1.2-.9.5-.8.5-1.1 1-.7 1.1-.5 1.1-.1 1.2v.2l.1 1.6.6 1.3.5.7.8.8 1.1.6.9.6 1.2.5 1.3.5 1.4.5.9.2.9.4 1.1.2 1.1.4 1.2.2 1.3.4 1.3.4 1.3.4 1.3.2 1.2.4 1.3.4 1.2.2 1.2.4 1.2.4 1.1.4 1.2.4 1.1.4 1.1.4 1.3.5 1.2.6 1.2.5 1.2.6 1.1.6 1.1.6.9.6 1 .7 1 .6.9.8 1 .8.8 1 .8.8.7 1 .7 1.1.6 1 .6 1.1.5 1 .4 1.1.4 1.1.2 1.1.2 1.2.2 1.2.1 1.2.1 1.3v.4z"/><path d="m227.2 510.1h1.2 1.2 1.1 1.2 1.2 1.2 1.1 1.2 1.2 1.2 1.2 1.1 1.2 1.2 1.2l-.5-1-.3-1.1-.5-1.2-.5-1.1-.3-1.1-.5-1.1-.5-1.1-.3-1.1-.5-1.1-.5-1.1-.4-1.1-.4-1.2-.4-1-.5-1.1-.4-1.1-.4-1.1-.5-1.2-.4-1-.4-1.1-.5-1.1-.5-1.2-.3-1.1-.5-1.1-.5 1.1-.3 1.1-.5 1.2-.5 1.1-.3 1.1-.5 1-.5 1.2-.5 1.1-.3 1.1-.5 1.1-.5 1-.3 1.2-.5 1.1-.5 1.1-.3 1.1-.5 1.1-.5 1.1-.5 1.1-.3 1.1-.5 1.1-.5 1.2-.3 1.1-.5 1h1.2z"/><path d="m293 227.7v-72.4c0-11.5-5.3-16.9-16.4-16.9h-18v106.1h18c11.1.1 16.4-5.3 16.4-16.8z"/></g></svg>