<svg enable-background="new 0 0 300 235" height="235" viewBox="0 0 300 235" width="300" xmlns="http://www.w3.org/2000/svg"><g fill="#fff" transform="matrix(.78491286 0 0 .78491286 -972.12018 -890.208099)"><path d="m1442.957 1196.842-.241 234.316-59.46-20.419-.418-274.204 75.897 21.186c48.582 13.786 78.314 40.585 77.83 87.551-.483 54.624-25.865 75.817-68.854 55.841v-101.276c0-14.941-24.753-25.851-24.754-2.995z"/><path d="m1370.714 1303.151-8.942 2.881-86.547 31.044c-18.218 8.353-33.437 13.758-33.533 27.369.457 17.232 27.459 25.615 66.997 32.219 21.07 4.223 42.595 1.394 61.026-2.512l.015-32.465s-34.165 13.279-42.295 14.384l-16.438-.091c-12.204-.066-17.887-7.884-5.731-12.076l65.436-24.763z"/><path d="m1524.502 1317.776c-22.722-.075-54.188 6.118-69.788 13.374v37.003l41.132-15.041 32.581-10.359c33.932-5.586 47.423 6.262 14.373 16.164l-88.083 32.234-.107 35.882 128.694-46.3c14.203-4.952 34.177-14.952 34.226-27.242-3.448-19.027-32.07-30.131-76.52-34.839-3.988-.411-7.994-.668-11.973-.786-1.517-.045-3.023-.085-4.537-.09z"/></g></svg>