<svg enable-background="new 0 0 169.4 181.1" viewBox="0 0 169.4 181.1" xmlns="http://www.w3.org/2000/svg" xmlns:xlink="http://www.w3.org/1999/xlink"><linearGradient id="a" gradientUnits="userSpaceOnUse" x1="23.37" x2="146.0456" y1="10.7345" y2="133.4101"><stop offset="0" stop-color="#ea5a9b"/><stop offset="1" stop-color="#4795d1"/></linearGradient><path d="m85 181.1c-.2 0-.3 0-.4 0h-.1c-3.9 0-18.7-1.9-44.8-25.7-11.7-10.7-19.4-33.7-22.7-68.2-2.6-27.1-1.9-54.5-1.6-66.2.1-2.3.1-4.1.1-5.1 0-7.4 9.7-11.5 33.3-14 15.6-1.6 32.3-1.9 35.5-1.9h.8.4c3.9.1 20.1.4 35.2 2 23.7 2.5 33.3 6.5 33.3 14 0 1 0 2.8.1 5.1.3 11.7 1 39-1.6 66.2-3.3 34.5-11 57.4-22.7 68.2-26.1 23.8-40.9 25.6-44.8 25.6z" fill="#fff"/><path d="m149.9 15.9c0-10.7-57.5-11.8-64.8-11.8s-.3 0-.7 0c-7.3.1-64.8 1.1-64.8 11.8 0 11.4-5.5 110.5 22.9 136.4 26.5 24.3 40.5 24.7 42.2 24.6.5 0 14.6.8 42.4-24.6 28.3-25.9 22.8-124.9 22.8-136.4z" fill="url(#a)"/><path d="m49.9 139.3 7.2-17.2 43.8.1 13.2 2.5 9.2 16-57.4.7z" fill="#fff"/><path d="m7.8 29 5.7 1.6 7.2.5 6.9-5.1 13.7 6.3 3.8 6.4 16-4.7 12.9-3 13.8 1.5 33.1 8.1 20.5 18-14.1 17.1 9.8 1.3 16.1 1.5-2.9 7.6 10.8 11.3 3.7 3.2-.6 11.9-9 10.9-11.8-6-.6-25.3-8.9 10.9-19.2-8.1-19.1-5-11.4-2.1-6.7 11.1-16.3 6.1-15-18.8-3.4-17.3-7.9 1.7-7.8 2.1-16.4-5-8.2-14.4.6-10.4 1.3-11.2z" fill="#e65f9b"/><g fill="#fff"><path d="m169.4 74.7c-2.8-3-6.6-4.5-10-5.2h-.1c-3.9-.8-7.1-.6-7.1-.6l.5-.5c-11.9-.4-21.3 8-21.3 8 7.3-8.3 18.7-10.3 24.1-10.8l-9.6-11.4c-5.8-12.7-13.1-12.6-13.1-12.6 5.6-7.8-14.6-11.4-14.6-11.4l-.4 4.9 4.2 2.6-2.3-.1c-11.7-6.8-46.2-9.3-46.2-9.3l-14.6 5.7-14.7-.3c-5.7-7.5-17.2-9.4-17.2-9.4l-6.3 6.7-7.6-2.5c-15.2-6-10.5 19.5-10.5 19.5s-2.6 3-2.6 11.4 14.1 16.7 21.3 16.7 11.1-3.8 11.1-3.8l8.9 3.1c-3.4 3-1.7 15-1.7 15s8 15.8 23.3 17.5 23.7-17.5 23.7-17.5c9 7.7 16.5 3.5 16.5 3.5 2.5 3.9 27.5 13 27.4 16.6s5.5 15.5 17.7 15.8c12.3.3 19-13 19.1-25.3s-12.9-14.2-12.9-14.2l.6-3.1c11-4.2 14.4-9 14.4-9zm-43.6-27.2s11 6.2 12.2 11.5c0 0-5.5-2.1-10.5-2.2 0 0-1.3-7.3-3.6-8.3zm-9.4-6.6s6.6 10.7 6.3 14.9l-32 .5s-8.3-5.8-7.2-8.8c0 0 6.2-8.8 11.2-8.9s21.7 2.3 21.7 2.3zm-20.3 31.7-5.4.2s-1.9-6.8-6.3-9.8c.1.1 10.5 5 11.7 9.6zm-22.1-41.6 14.6 5.4s-8.3 2.5-10.9 5.8c0 0-6 .2-19.2-6.1.1 0 8.8-3.6 15.5-5.1zm7 19.9c-7.4-2.3-14.3-2.7-14.3-2.7 1.7-.3 1.8-3.6 1.8-3.6 8 2.4 12.5 6.3 12.5 6.3zm-18-3.2c-5.7-2.8 2-4.5 2-4.5-2.7 2.4-2 4.5-2 4.5zm3.6-4.3s.3 4-2 4.7c0 .1 2.2-3.9 2-4.7zm-38.5-15.7c9.2 2.3 12.9 7 11.8 6.6-5.4-1.9-13.5-3.2-13.5-3.2.3-.7 1.7-3.4 1.7-3.4zm-19.8 10.2-.6 15.3h-1.9l.2-7.1h-1.7l.4-10.5 3.1-6.6 2 .1-3.5 7.4zm5.7 19.2-2.4.2.5-6.1-.6-.7-.8-11.7 3.7-6.5 6.2 1.3s.7-.9 1.1-1.5 8.2 2.8 8.8 2.8l-15 2.5v3.9l4.7 2.3-1.1 7-4.3-.9zm3.6-2.6 1-1.2s4.7 3.8 9 4.4l-.9 1.2s-5-.9-9.1-4.4zm8.5 5.6-.9 1.2s-5-.8-9.1-4.4l1-1.2s4.7 3.8 9 4.4zm31.9 21.3 6.2 3.8-7.1 8c-1.4-3.5-1.1-7.8.9-11.8zm3.4-4.6c3.4-3.3 7.9-4.9 12-4.1l-6.5 9.2zm-.1 22c-.5-.3-1-.7-1.5-1.2l6.6-7 2.5 9.7c-2.6.3-5.3-.1-7.6-1.5zm18.2-5.8c-1.4 2.2-3.2 4-5.2 5.2l-3.4-10.5 10.7.6c-.5 1.5-1.2 3.1-2.1 4.7zm-8.7-9.9 5.9-9.2c.1.1.2.1.4.2 3.1 2 4.9 5.5 5.1 9.3zm26.7 4.3c-.5-.3-3.9-2-10-2.7 0 0 1.3-8.5-3.1-14.7-2.3-3.3-8.2-7.4-10-8.6-21.2-7.2-28 6.6-28 6.6l-9-.8s-3.1 1.8-5.3 2.9c-1.8.9 1.3-5 1.8-5.7-.6.8-3.8 7.1-11.9 5.4-9.3-2-6.4-10.3-6.4-10.3.6.8 3.3 4.7 7.7 4.6 6.8-.1 7.3-7.3 7.3-7.3-5.3-5.4-4.2-8-4.2-8 3.8 8.9 8 7.9 8 7.9.1-2.9 6.5-6.2 6.5-6.2-7.4 4.6-5.8 11.1.9 11.3 7.4.3 5.9-8.5 5.9-8.5 1.9-1.6 9.4-.7 15.7-.4-1.5-.9-2.9-1.6-3.8-1.6-3.5-.1-8.1-4.6-8.1-4.6l.8.6s15.6 1.7 19.8 11.1l.7.6c2 .3 9.8 2.4 16 14.2 6.2 12 8.3 13.9 8.7 14.2 0 0 .1.1.1.1s0-.1-.1-.1zm1.6-18.2s-1.2-4.6-6.8-9.6c0 0 26.3-.6 38.5 2 0 .1-20.1-1.4-31.7 7.6zm18 23.7.3-1.3 7.5-7 3.1 1.6-7.8 8.2zm15.7 8.1-5.3-2.7s7.5-7.5 8.1-8l3.9 1.6c0 .1-5.6 3.4-6.7 9.1zm-5.4-19.1 5.7-4.5 16.1 6.9-6.4 4.4zm20.9 32.1c-.1-2.4.6-5.2 2.1-7.9.1-.2.3-.5.4-.7l1.6 1.2zm2.6 5.1c-.9-.5-1.6-1.4-2-2.5l4.8-6.1 1.4 8.7c-1.7.6-3.1.6-4.2-.1zm11.2-6.7c-1.2 2.3-2.8 4.1-4.4 5.3l-1.9-9.2 7.9-.1c-.4 1.4-.9 2.7-1.6 4zm2-7-7.1.1 4.8-6c1.6 1.1 2.4 3.2 2.3 5.9zm-5-6.5-4.6 5.4-2-1.4c2.1-2.4 4.5-3.8 6.6-4z"/><path d="m53.1 127.7c-.7 0-1.4-.3-2-.7-.7-.6-1-1.4-1-2.3v-5.3c0-1.5 1.1-2.7 2.6-3 .8-.1 1.5-.2 2.3-.3.3 0 .6-.1.9-.1h.4c.7 0 1.3.2 1.9.5.7.3 1.2.9 1.7 1.6.4.7.6 1.5.6 2.4 0 .5-.1 1.1-.3 1.6l.2.2c.6.9.7 2 .3 2.9-.4 1-1.3 1.6-2.4 1.7-.7.1-1.3.2-2 .3-.1 0-.3 0-.4 0h-.1c-.2.1-.3.1-.5.1-.6.1-1.1.2-1.7.2-.2.2-.4.2-.5.2z"/><path d="m60.7 126.8c-.5 0-1-.1-1.5-.2-.8-.2-1.5-.6-2.1-1-.6-.5-1.1-1.1-1.4-1.9-.3-.7-.5-1.5-.5-2.4 0-.8.2-1.6.5-2.3s.7-1.3 1.2-1.9c.5-.5 1.1-1 1.8-1.3.6-.3 1.4-.5 2.1-.6h.7c.5 0 1 .1 1.5.2.8.2 1.5.5 2.1 1s1.1 1.1 1.5 1.9c.3.7.5 1.5.5 2.4 0 .8-.2 1.6-.5 2.3s-.7 1.3-1.2 1.9c-.5.5-1.1 1-1.8 1.3s-1.4.5-2.1.6c-.3 0-.5 0-.8 0z"/><path d="m67.2 126.2c-.6 0-1.2-.1-1.7-.2-.8-.2-1.4-.6-2-1.1s-1.1-1.1-1.4-1.8-.5-1.5-.5-2.4c0-.8.2-1.6.5-2.3s.7-1.3 1.2-1.9c.5-.5 1.1-1 1.8-1.3s1.4-.5 2.1-.6h.5c.6 0 1.2.1 1.7.2.8.2 1.5.6 2 1.1 1.2 1 1.4 2.9.4 4.2l-.1.2c1 1.2 1 2.9 0 4.1-.5.5-1.1 1-1.8 1.3s-1.4.5-2.2.6c-.1-.1-.3-.1-.5-.1z"/><path d="m70.1 125.9c-.8 0-1.5-.3-2-.8-.6-.6-1-1.4-1-2.2v-5.3c0-1.6 1.2-2.9 2.8-3 .6 0 1.2-.1 1.8-.1h.2c.2 0 .4 0 .6.1.2-.1.5-.1.7-.1.7 0 1.4-.1 2.1-.1h.1c1.1 0 2.2.6 2.7 1.6s.4 2.3-.3 3.2c-.2.2-.4.5-.5.7.2.3.5.6.7.9.7.9.8 2.1.3 3.1s-1.5 1.7-2.6 1.7c-.7 0-1.4.1-2.2.1-.1 0-.1 0-.2 0-.2 0-.4 0-.6-.1-.2.1-.5.1-.7.1-.6 0-1.1.1-1.7.1-.1 0-.2.1-.2.1z"/><path d="m75.8 125.5c-.8 0-1.5-.3-2.1-.8-.6-.6-.9-1.3-.9-2.2v-5.3c0-1.6 1.3-2.9 2.9-3 1.2-.1 2.5-.1 3.7-.1h.1c.8 0 1.5.3 2.1.9s.9 1.3.9 2.1v1.5c0 .3 0 .6-.1.8v.3c.2.4.2.8.2 1.2v1.5c0 1.6-1.3 3-2.9 3-1.2 0-2.5.1-3.7.1-.1 0-.1 0-.2 0z"/><path d="m81.2 125.4c-.8 0-1.5-.3-2.1-.9s-.9-1.3-.9-2.1v-1.3c-.1-.1-.3-.2-.4-.3-.6-.6-.9-1.3-.9-2.1v-1.5c0-1.6 1.3-3 2.9-3 1.5 0 3 0 4.5-.1.8 0 1.6.3 2.1.9.6.6.9 1.3.9 2.1v1.5c0 1-.5 1.9-1.3 2.5v1.3c0 1.6-1.3 3-3 3-.5 0-1.7 0-1.8 0z"/><path d="m90.1 125.4c-1.2 0-2.4-.1-3.5-.1-1.6 0-3-1.4-3-3v-5.3c0-.8.3-1.6.9-2.1.6-.6 1.3-.9 2.1-.9h1.9c1.6 0 2.9 1.4 2.9 3v1.1c1 .5 1.8 1.5 1.8 2.7v1.5c0 .8-.3 1.6-.9 2.1-.6.7-1.3 1-2.2 1z"/><path d="m94.4 125.6c-1.2-.1-2.5-.1-3.7-.1-1.6 0-2.9-1.4-2.9-3v-5.3c0-.8.3-1.6.9-2.2.6-.5 1.3-.8 2.1-.8h.1c1.2 0 2.5.1 3.7.1 1.6.1 2.9 1.4 2.9 3v1.5c0 .3 0 .6-.1.8v.3c.2.4.2.8.2 1.2v1.5c0 .8-.3 1.6-.9 2.2-.6.5-1.3.8-2.1.8-.1 0-.1 0-.2 0z"/><path d="m100.5 126c-.6 0-1.3-.1-1.9-.1-.4 0-.8-.1-1.1-.3-.3.1-.6.2-.9.2-.1 0-.1 0-.2 0-.6 0-1.2-.1-1.9-.1-1 0-1.9-.6-2.4-1.4s-.6-1.8-.3-2.7l2.1-5.2c.5-1.1 1.6-1.9 2.8-1.9h.2c.6 0 1.3.1 1.9.1 1.2.1 2.2.8 2.6 1.9.7 1.8 1.4 3.6 2.1 5.4.4 1 .2 2-.4 2.9-.6.8-1.5 1.2-2.4 1.2 0 0-.1 0-.2 0z"/><path d="m104.1 126.4c-.2 0-.4 0-.7 0-.8-.1-1.5-.3-2.1-.5-.7-.3-1.3-.7-1.8-1.3-.5-.5-1-1.2-1.3-1.9s-.5-1.5-.5-2.3c0-.9.2-1.7.5-2.4s.8-1.4 1.4-1.9 1.3-.9 2-1.1c.5-.2 1.1-.2 1.7-.2h.6c.8.1 1.5.3 2.2.6.8.3 1.4.8 1.9 1.4.6.7.9 1.7.7 2.5.1.3.1.6.1.9v2.9c0 1.1-.6 2.2-1.7 2.7-.3.1-.6.3-.9.4s-.6.1-.9.2c-.3 0-.6.1-.9.1-.1-.1-.2-.1-.3-.1z"/><path d="m109.6 127c-.3 0-.5 0-.8 0-.7-.1-1.4-.3-2-.6s-1.2-.7-1.7-1.2-.9-1.1-1.1-1.8c-.2-.6-.3-1.2-.3-1.9v-3.2c0-.8.4-1.7 1-2.2s1.3-.8 2-.8h.3c.6.1 1.2.1 1.8.2.2 0 .5.1.7.2h.4.4c.6.1 1.2.1 1.8.2 1.5.2 2.6 1.5 2.6 3v3.2c0 .7-.1 1.4-.4 2-.3.7-.7 1.3-1.3 1.8s-1.2.8-2 1c-.5 0-.9.1-1.4.1z"/><path d="m116.3 127.7c-.1 0-.3 0-.4 0-1.2-.2-2.5-.4-3.7-.5-1.5-.2-2.6-1.5-2.6-3v-5.3c0-.9.4-1.7 1-2.3.5-.5 1.3-.7 2-.7h.4c1.2.2 2.5.3 3.7.5 1.5.2 2.6 1.5 2.6 3v1.5c0 .3 0 .6-.1.8v.3c.2.4.2.8.2 1.2v1.5c0 .9-.4 1.7-1 2.3-.7.5-1.4.7-2.1.7z"/><path d="m29.9 158.1c-.4 0-.9 0-1.3-.1-1.8-.2-3.5-.7-4.9-1.6-1.5-1-2.6-2.3-3.4-3.9s-1.2-3.4-1.2-5.5c0-2 .4-3.9 1-5.8.7-1.8 1.6-3.5 2.8-4.9 1.2-1.5 2.6-2.8 4.2-3.8 1.6-1.1 3.4-1.8 5.2-2.3 1.3-.3 2.6-.5 3.8-.5.6 0 1.3 0 1.9.1 2 .3 3.6.9 5 2 1.2 1 1.5 2.8.6 4.1-.2.3-.5.7-.7 1 .2.1.3.2.5.3.7.6 1.1 1.4 1.1 2.3v11.2c0 .9-.4 1.8-1.1 2.3-.6.5-1.3.9-2 1.4-.7.4-1.5.8-2.2 1.2-.8.4-1.6.7-2.4 1-.9.3-1.8.6-2.6.8-1.6.5-3 .7-4.3.7z"/><path d="m42.5 155.1c-.9 0-1.7-.4-2.3-1-.7-.8-.9-2-.5-3 2.7-7.3 5.4-14.7 8.1-22 .4-1 1.3-1.7 2.3-1.9 2.5-.4 5-.8 7.5-1.1h.4c1.2 0 2.3.7 2.8 1.9 2.7 6.5 5.4 13.1 8.1 19.7.4.9.3 1.9-.2 2.7s-1.3 1.3-2.3 1.4c-2.5.2-5 .5-7.5.8-.1 0-.2 0-.4 0-1.2 0-2.4-.8-2.8-1.9l-.2-.6c-.8.1-1.5.2-2.3.3l-.5 1.4c-.3 1.1-1.3 1.9-2.4 2-2.4.4-4.8.8-7.2 1.3-.2-.1-.4 0-.6 0z"/><path d="m67.5 151.5c-.8 0-1.5-.3-2-.8-.6-.6-1-1.4-1-2.2v-20.5c0-1.6 1.2-2.9 2.8-3 3-.2 6.1-.4 9.1-.5h.7c1 0 2 .1 3 .3 1.4.2 2.7.7 3.8 1.4 1.2.8 2.2 1.8 2.9 3.1s1.1 2.9 1.1 4.7-.5 3.5-1.4 5c-.3.5-.7 1-1.1 1.4 1.2 2 2.5 3.9 3.7 5.9.6.9.6 2.1.1 3.1s-1.5 1.5-2.6 1.5c-.6 0-1.2 0-1.8 0-2 0-4.1 0-6.1.1h-.1c-.8 0-1.5-.3-2-.8-.5.5-1.2.9-2 .9-2.2.1-4.4.3-6.7.4-.3 0-.3 0-.4 0z"/><path d="m109.7 152.3c-.1 0-.2 0-.4 0-2.5-.3-5-.5-7.5-.8-1.2-.1-2.2-.9-2.6-2l-.4-1.2c-.8-.1-1.5-.1-2.3-.1l-.3.8c-.4 1.2-1.6 2-2.8 2h-.1c-2.4-.1-4.8-.2-7.3-.2-1 0-1.9-.5-2.5-1.3s-.7-1.9-.3-2.8c2.7-6.8 5.5-13.6 8.2-20.3.5-1.1 1.6-1.9 2.8-1.9h.1c2.5.1 5 .3 7.5.5 1.2.1 2.2.8 2.6 1.9 2.7 7.1 5.4 14.2 8.1 21.3.4 1 .2 2.1-.4 2.9-.7.8-1.5 1.2-2.4 1.2z"/><path d="m124.5 154.8c-.4 0-.9 0-1.3 0-.9 0-1.8-.1-2.7-.3-1.9-.3-3.7-.9-5.4-1.8s-3.2-2-4.4-3.3c-1.3-1.3-2.3-2.9-3-4.6-.7-1.8-1.1-3.7-1.1-5.7 0-2.1.4-4 1.2-5.6.8-1.7 1.9-3.1 3.2-4.2 1.4-1.1 3-1.9 4.8-2.3.9-.2 1.9-.3 2.9-.3.8 0 1.7.1 2.6.2 1.9.3 3.8 1 5.5 2 1.8 1 3.2 2.2 4.4 3.6 1 1.2.9 2.9-.2 4-.2.2-.4.4-.6.6 1.1.5 1.9 1.5 1.9 2.8v11.2c0 1.2-.8 2.3-1.9 2.8-.7.3-1.4.5-2.2.6s-1.5.2-2.4.3c-.5 0-.9 0-1.3 0z"/><path d="m147.1 160.2c-.3 0-.6 0-.9-.1-4.7-1.4-9.4-2.7-14.2-3.8-1.4-.3-2.3-1.5-2.3-2.9v-20.5c0-.9.4-1.8 1.1-2.3.5-.4 1.2-.7 1.9-.7.2 0 .5 0 .7.1 4.7 1.1 9.5 2.4 14.1 3.8 1.3.4 2.1 1.5 2.1 2.9v5.7c0 .6-.2 1.1-.5 1.6v5.4c.6.6.9 1.3.9 2.2v5.7c0 1-.5 1.8-1.2 2.4-.5.3-1.1.5-1.7.5z"/></g><path d="m52.9 119.4c.8-.1 1.5-.2 2.3-.3h.8c.3 0 .5.1.7.2s.4.3.5.5.2.5.2.8-.1.6-.2.9c-.2.3-.4.5-.7.7.4.7.9 1.3 1.3 2-.7.1-1.4.2-2 .3-.3-.6-.7-1.2-1-1.7 0 0 0 0-.1 0v1.9c-.6.1-1.2.2-1.7.3-.1-2.1-.1-3.8-.1-5.6zm1.7 2h.3.2c.1 0 .1-.1.2-.1s.1-.1.2-.2c0-.1.1-.1.1-.2s0-.2-.1-.2c0 0-.1-.1-.1-.1-.1 0-.1 0-.2 0s-.1 0-.2 0-.3 0-.4.1z" fill="#6a64ab"/><path d="m58 121.3c0-.4.1-.8.2-1.2.2-.4.4-.7.6-.9.3-.3.6-.5.9-.7.4-.2.8-.3 1.2-.3s.8 0 1.2.1.7.2.9.5c.3.2.5.5.6.8.2.3.2.7.2 1.1s-.1.8-.2 1.2c-.2.4-.4.7-.6 1-.3.3-.6.5-.9.7-.4.2-.8.3-1.2.3s-.8 0-1.2-.1-.7-.2-.9-.5c-.3-.2-.5-.5-.6-.8-.1-.4-.2-.8-.2-1.2zm1.9-.2c0 .2 0 .3.1.5.1.1.1.3.2.3.1.1.2.2.3.2s.3.1.4 0c.1 0 .3-.1.4-.1.1-.1.2-.2.3-.3s.2-.2.2-.4c.1-.2.1-.3.1-.5s0-.3-.1-.5c-.1-.1-.1-.2-.2-.3s-.2-.2-.3-.2-.3-.1-.4 0c-.2 0-.3.1-.4.1-.1.1-.2.2-.3.3s-.2.2-.2.4c-.1.1-.1.3-.1.5z" fill="#6a64ab"/><path d="m64.4 120.6c0-.4.1-.8.2-1.2.2-.4.4-.7.6-.9.3-.3.6-.5.9-.6.4-.2.7-.3 1.1-.3s.8 0 1.2.1.7.3.9.5c-.4.5-.7.9-1.1 1.4-.1-.1-.2-.2-.4-.3s-.3-.1-.5-.1-.3.1-.4.1c-.1.1-.2.1-.3.3-.1.1-.2.2-.2.4-.1.1-.1.3-.1.5s0 .3.1.5c.1.1.1.2.2.3s.2.2.3.2.3.1.4 0c.2 0 .4-.1.5-.2s.3-.2.3-.3c.4.4.7.8 1.1 1.2-.2.3-.5.5-.9.6-.4.2-.8.3-1.2.3s-.8 0-1.1-.1c-.4-.1-.7-.3-.9-.5-.3-.2-.5-.5-.6-.8 0-.3-.1-.7-.1-1.1z" fill="#6a64ab"/><path d="m71.7 120.6v2.1c-.6 0-1.2.1-1.7.1 0-1.8 0-3.5 0-5.3.6 0 1.2-.1 1.7-.1v1.9c.5-.7.9-1.4 1.4-2 .7 0 1.4-.1 2.1-.1-.7.8-1.3 1.7-2 2.5.7.9 1.4 1.8 2.1 2.8-.7 0-1.5.1-2.2.1-.5-.7-.9-1.3-1.4-2z" fill="#6a64ab"/><path d="m75.7 117.2c1.2-.1 2.4-.1 3.7-.1v1.5c-.7 0-1.3 0-2 .1v.5c.6 0 1.2 0 1.9-.1v1.4c-.6 0-1.2 0-1.9.1v.5c.7 0 1.4 0 2.1-.1v1.5c-1.3 0-2.5.1-3.8.1 0-1.9 0-3.6 0-5.4z" fill="#6a64ab"/><path d="m82.9 122.3c-.6 0-1.2 0-1.8 0 0-1.3 0-2.5 0-3.8-.4 0-.9 0-1.3 0 0-.5 0-1 0-1.5 1.5 0 2.9-.1 4.4-.1v1.5c-.4 0-.9 0-1.3 0z" fill="#6a64ab"/><path d="m86.6 117h1.8v3.8h1.8v1.5c-1.2 0-2.4-.1-3.6-.1 0-1.6 0-3.4 0-5.2z" fill="#6a64ab"/><path d="m90.8 117.1c1.2 0 2.4.1 3.7.1v1.5c-.7 0-1.3-.1-2-.1v.5c.6 0 1.2 0 1.9.1v1.4c-.6 0-1.2-.1-1.9-.1v.5c.7 0 1.4.1 2.1.1v1.5c-1.3-.1-2.5-.1-3.8-.1 0-1.9 0-3.6 0-5.4z" fill="#6a64ab"/><path d="m96.8 117.4c.6 0 1.3.1 1.9.1.7 1.8 1.4 3.6 2.1 5.4-.7 0-1.3-.1-2-.1-.1-.3-.2-.5-.3-.8-.6 0-1.1-.1-1.7-.1-.1.3-.2.5-.3.8-.6 0-1.3-.1-1.9-.1.8-1.8 1.5-3.5 2.2-5.2zm.9 1.9c-.1.4-.3.9-.4 1.3.3 0 .6 0 .9.1-.2-.5-.3-1-.5-1.4z" fill="#6a64ab"/><path d="m103.9 123.3c-.4 0-.8-.1-1.2-.3s-.7-.4-.9-.6c-.3-.3-.5-.6-.6-.9-.2-.4-.2-.7-.2-1.2 0-.4.1-.8.2-1.1.2-.3.4-.6.6-.8.3-.2.6-.4.9-.5.4-.1.7-.1 1.1-.1s.8.1 1.2.3.7.4.9.6c-.3.4-.7.8-1 1.1-.1-.1-.2-.3-.4-.3-.2-.1-.3-.1-.6-.2-.1 0-.3 0-.4 0s-.3.1-.4.2-.2.2-.3.4c-.1.1-.1.3-.1.5 0 .4.1.7.3.9s.5.4.9.4h.2.2c0-.1 0-.3 0-.4-.3 0-.6-.1-.9-.1 0-.5 0-.9 0-1.4.8.1 1.6.2 2.4.2v2.9c-.1.1-.3.1-.4.2-.2 0-.3.1-.5.1s-.4 0-.6.1c0 0-.2 0-.4 0z" fill="#6a64ab"/><path d="m109.3 123.9c-.4 0-.8-.1-1.1-.3-.3-.1-.6-.3-.8-.6-.2-.2-.4-.5-.5-.8s-.1-.6-.1-.9c0-1.1 0-2.1 0-3.2.6.1 1.2.1 1.8.2v3c0 .3.1.5.2.6.1.2.3.2.5.3.2 0 .4 0 .5-.2.1-.1.2-.3.2-.6 0-1 0-2 0-3 .6.1 1.2.1 1.8.2v3.2c0 .3-.1.6-.2.9s-.3.5-.5.6c-.2.2-.5.3-.8.4-.2.2-.6.2-1 .2z" fill="#6a64ab"/><path d="m112.7 118.9c1.2.2 2.4.3 3.6.5v1.5c-.7-.1-1.3-.2-2-.3v.5c.6.1 1.2.2 1.8.3v1.4c-.6-.1-1.2-.2-1.8-.3v.5c.7.1 1.4.2 2.1.3v1.5c-1.3-.2-2.5-.4-3.8-.5.1-1.9.1-3.6.1-5.4z" fill="#6a64ab"/><path d="m33 154.7c-1.6.4-3.1.5-4.4.4-1.4-.1-2.5-.5-3.5-1.2-1-.6-1.8-1.5-2.3-2.7-.6-1.2-.9-2.6-.9-4.2s.3-3.2.9-4.7 1.3-2.9 2.3-4.1 2.1-2.3 3.5-3.2c1.3-.9 2.8-1.5 4.3-1.9 1.6-.4 3.1-.5 4.5-.3s2.6.7 3.5 1.4c-1.3 1.9-2.7 3.8-4 5.7-.4-.4-.9-.7-1.5-.9s-1.3-.1-2.1.1c-.6.1-1.1.4-1.6.7-.5.4-1 .8-1.4 1.3s-.7 1.1-1 1.8c-.2.6-.4 1.3-.4 2 0 1.4.4 2.5 1.1 3.2s1.9.8 3.5.4c.3-.1.6-.2.9-.3s.5-.3.7-.4c0-.5 0-1 0-1.6-1.1.3-2.2.5-3.3.8 0-1.8 0-3.6 0-5.4 3.1-.8 6.2-1.5 9.3-2.2v11.2c-.5.4-1 .8-1.7 1.1-.6.4-1.3.7-2 1.1-.7.3-1.4.6-2.2.9-.6.5-1.4.8-2.2 1z" fill="#6a64ab"/><path d="m50.3 130c2.4-.4 4.9-.8 7.4-1.1 2.7 6.5 5.4 13.1 8.1 19.7-2.5.2-5 .5-7.6.8-.4-1-.7-1.9-1.1-2.9-2.2.3-4.4.6-6.5 1-.3 1.1-.7 2.1-1 3.2-2.4.4-4.9.9-7.3 1.3 2.6-7.3 5.3-14.7 8-22zm3.6 6.7c-.6 1.8-1.1 3.5-1.7 5.3 1.1-.2 2.2-.3 3.3-.5-.5-1.6-1-3.2-1.6-4.8z" fill="#6a64ab"/><path d="m67.2 128c3-.2 6-.4 8.9-.5 1 0 2 0 3 .2s1.9.5 2.7 1 1.4 1.2 1.9 2c.5.9.7 1.9.7 3.2s-.3 2.4-.9 3.3c-.6 1-1.5 1.7-2.7 2.2 1.8 2.7 3.5 5.5 5.3 8.3-2.7 0-5.3 0-8 .1-1.3-2.4-2.7-4.8-4-7.2-.1 0-.1 0-.2 0v7.3c-2.3.1-4.5.3-6.8.4.1-6.6.1-13.5.1-20.3zm6.7 8.2c.5 0 .9 0 1.4-.1.2 0 .5 0 .8-.1s.5-.1.8-.3c.2-.1.4-.3.6-.5s.2-.5.2-.9-.1-.7-.2-.9-.3-.4-.5-.5-.4-.2-.7-.2-.5 0-.7 0c-.6 0-1.1 0-1.7.1z" fill="#6a64ab"/><path d="m93.9 127.5c2.5.1 4.9.3 7.4.5 2.7 7.1 5.4 14.2 8.1 21.3-2.5-.3-5-.5-7.6-.7-.4-1-.7-2.1-1.1-3.1-2.2-.2-4.4-.3-6.6-.4-.3 1-.7 2-1 3-2.5-.1-4.9-.2-7.4-.2 2.8-6.9 5.5-13.7 8.2-20.4zm3.6 7.3c-.6 1.7-1.1 3.3-1.7 5 1.1.1 2.2.1 3.4.2-.6-1.7-1.1-3.4-1.7-5.2z" fill="#6a64ab"/><path d="m121.3 151.5c-1.6-.3-3.1-.8-4.5-1.5s-2.6-1.6-3.6-2.7-1.8-2.3-2.4-3.7-.9-2.9-.9-4.6c0-1.6.3-3.1.9-4.4s1.4-2.3 2.4-3.1 2.2-1.4 3.6-1.7 2.8-.3 4.4-.1c1.6.3 3.1.8 4.6 1.6 1.4.8 2.6 1.8 3.5 2.9-1.3 1.3-2.7 2.7-4 4-.4-.6-.9-1.1-1.5-1.5s-1.3-.7-2.1-.8c-.6-.1-1.1-.1-1.6.1-.5.1-1 .4-1.4.7-.4.4-.7.8-1 1.3s-.4 1.2-.4 1.9c0 1.4.4 2.7 1.1 3.7s1.9 1.7 3.6 2c.3.1.6.1.9.1s.6 0 .7-.1c0-.5 0-1 0-1.6-1.1-.2-2.2-.4-3.3-.6 0-1.8 0-3.6 0-5.4 3.1.5 6.3 1.1 9.4 1.8v11.2c-.5.2-1 .3-1.7.4-.6.1-1.3.2-2 .2s-1.4 0-2.2 0c-.9.1-1.7 0-2.5-.1z" fill="#6a64ab"/><path d="m132.9 132.8c4.7 1.1 9.3 2.3 13.9 3.7v5.7c-2.5-.8-5-1.5-7.5-2.1v1.8c2.4.6 4.7 1.3 7 2v5.4c-2.3-.7-4.7-1.4-7-2v1.9c2.7.7 5.3 1.5 8 2.3v5.7c-4.8-1.5-9.6-2.8-14.4-3.9 0-6.8 0-13.6 0-20.5z" fill="#6a64ab"/></svg>