<svg viewBox="0 0 233 233" xmlns="http://www.w3.org/2000/svg"><path d="m154.229 43.101c-24.139.21-43.729 19.99-43.729 44.199v.6l-28.5 41.4c-.287-.012-.575-.021-.864-.026l-.432-.004c-4.182-.011-8.407.799-12.304 2.43-1.781.75-3.563 1.676-5.179 2.695l-.321.205-62.6-25.8c3.9-60.8 54.5-108.8 116.2-108.8 64.3 0 116.5 52.2 116.5 116.5s-52.2 116.5-116.5 116.5c-52.533 0-96.917-34.778-111.462-82.543l44.162 18.243c2.2 9.9 9 18.6 19.1 22.8 3.972 1.671 8.096 2.474 12.163 2.499l.393-.001c12.582-.079 24.544-7.598 29.644-19.898 1.8-4.3 2.6-8.8 2.5-13.3l40.8-29.1h1l.286-.001c24.268-.154 43.914-19.994 43.914-44.299 0-24.4-19.8-44.3-44.2-44.3h-.286zm-73.279 93.549c3.125.025 6.3.65 9.35 1.95 6.2 2.6 10.9 7.4 13.5 13.5s2.4 13-.1 19.1c-3.934 9.426-12.99 15.161-22.59 15.325l-.304.003c-3.237.016-6.531-.603-9.706-1.928-5.9-2.4-10.3-6.9-12.8-12.2l14.4 6c2.35.975 4.781 1.431 7.167 1.42l.224-.002c7.074-.119 13.714-4.341 16.609-11.318 3.9-9.4-.5-20.1-9.9-24l-14.9-6.2c2.761-1.066 5.733-1.639 8.757-1.651zm74.231-78.748c16.125.206 29.119 13.425 29.119 29.498-.099 16.073-13.094 29.292-29.121 29.498l-.379.002c-16.2 0-29.5-13.2-29.5-29.5s13.2-29.5 29.5-29.5zm-.381 7.198c-12.2 0-22.1 9.9-22.1 22.2 0 12.2 9.9 22.2 22.1 22.2l.286-.002c12.068-.153 21.814-9.994 21.814-22.198s-9.746-22.045-21.814-22.198z" fill="#fff"/></svg>