<svg enable-background="new 0 0 372.369 372.572" height="372.572" viewBox="0 0 372.369 372.572" width="372.369" xmlns="http://www.w3.org/2000/svg"><path d="m169.189 359.449c-28.684-2.747-57.724-13.048-82.67-29.324-20.904-13.639-25.625-19.245-25.625-30.435 0-22.476 24.712-61.84 66.992-106.716 24.013-25.486 57.461-55.36 61.078-54.551 7.03 1.572 63.25 56.41 84.296 82.225 33.281 40.821 48.582 74.246 40.809 89.147-5.908 11.327-42.572 33.467-69.508 41.972-22.201 7.012-51.356 9.982-75.372 7.682zm-136.529-83.127c-17.371-26.649-26.147-52.885-30.385-90.832-1.399-12.529-.898-19.696 3.177-45.415 5.079-32.054 23.333-69.136 45.268-91.957 9.342-9.72 10.176-9.957 21.563-6.121 13.828 4.659 28.596 14.857 51.498 35.567l13.362 12.082-7.297 8.965c-33.871 41.613-69.629 100.597-83.105 137.089-7.326 19.839-10.28 39.753-7.129 48.044 2.129 5.598.174 3.511-6.952-7.422zm304.915 4.534c1.717-8.378-.454-23.763-5.541-39.28-11.017-33.606-47.84-96.124-81.653-138.631l-10.644-13.381 11.516-10.574c15.036-13.807 25.476-22.073 36.74-29.094 8.889-5.541 21.591-10.445 27.051-10.445 3.367 0 15.218 12.299 24.784 25.721 14.817 20.788 25.719 45.987 31.241 72.22 3.568 16.95 3.865 53.231.574 70.14-2.7 13.876-8.402 31.875-13.966 44.082-4.168 9.146-14.535 26.91-19.078 32.69-2.335 2.971-2.337 2.965-1.024-3.448zm-165.316-247.751c-15.602-7.923-39.669-16.427-52.965-18.715-4.661-.803-12.611-1.25-17.669-.994-10.97.554-10.479-.02 7.118-8.334 14.63-6.912 26.834-10.977 43.4-14.455 18.637-3.913 53.666-3.959 72.005-.095 19.809 4.175 43.133 12.854 56.276 20.942l3.906 2.404-8.962-.453c-17.811-.898-43.767 6.296-71.633 19.857-8.405 4.091-15.718 7.358-16.25 7.261s-7.383-3.436-15.226-7.418z" fill="#fff" transform="translate(-1.570662 12.357467)"/></svg>